#N canvas 0 25 1272 692 10;
#X obj 372 115 inlet;
#X obj 168 110 inlet~;
#X obj 253 107 inlet~;
#X obj 198 500 outlet~;
#X obj 305 498 outlet~;
#X obj 371 213 random 200;
#X obj 209 454 mtl/saturate~ /id saturate;
#X msg 326 282 /thresold \$1;
#X obj 380 323 t b a;
#X obj 365 384 route list;
#X obj 365 355 sssad/sssad saturate-thresold;
#X connect 0 0 5 0;
#X connect 1 0 6 0;
#X connect 2 0 6 1;
#X connect 5 0 7 0;
#X connect 6 0 3 0;
#X connect 6 1 4 0;
#X connect 7 0 8 0;
#X connect 8 0 10 0;
#X connect 8 1 10 1;
#X connect 9 0 6 2;
#X connect 10 0 9 0;
