#N canvas 0 25 1272 692 10;
#X obj 404 64 inlet;
#X obj 168 110 inlet~;
#X obj 253 107 inlet~;
#X obj 198 500 outlet~;
#X obj 305 498 outlet~;
#X obj 373 146 random 100;
#X msg 359 207 /wet \$1;
#X obj 371 178 / 100;
#X obj 445 142 random 100;
#X obj 456 174 / 50;
#X obj 401 104 t b b;
#X obj 198 374 mtl/rect-up~ /id rect-up;
#X msg 451 207 /rect-up \$1;
#X obj 570 252 t b a;
#X obj 519 319 route list;
#X obj 535 285 sssad/sssad rect-up-rect-up;
#X obj 368 245 t b a;
#X obj 333 278 sssad/sssad rect-up-wet;
#X connect 0 0 10 0;
#X connect 1 0 11 0;
#X connect 2 0 11 1;
#X connect 5 0 7 0;
#X connect 6 0 16 0;
#X connect 7 0 6 0;
#X connect 8 0 9 0;
#X connect 9 0 12 0;
#X connect 10 0 5 0;
#X connect 10 1 8 0;
#X connect 11 0 3 0;
#X connect 11 1 4 0;
#X connect 12 0 13 0;
#X connect 13 0 15 0;
#X connect 13 1 15 1;
#X connect 14 0 11 2;
#X connect 15 0 14 0;
#X connect 16 0 17 0;
#X connect 16 1 17 1;
#X connect 17 0 14 0;
