#N canvas 0 25 1272 692 10;
#X obj 482 100 inlet;
#X obj 168 110 inlet~;
#X obj 253 107 inlet~;
#X obj 179 604 outlet~;
#X obj 286 602 outlet~;
#X obj 216 304 random 100;
#X msg 208 360 /wet \$1;
#X obj 211 333 / 100;
#X obj 384 248 random 100;
#X obj 512 207 random 100;
#X obj 142 557 mtl/granularLive~ /id granularLive;
#X obj 774 168 random 100;
#X msg 382 314 /feedbackleft \$1;
#X obj 513 237 / 100;
#X obj 393 282 / 100;
#X msg 625 231 /transpositionleft \$1;
#X obj 623 207 random 100;
#X obj 926 133 random 150000;
#X obj 1028 98 random 15000;
#X obj 479 140 t b b b b b b b;
#X msg 510 263 /feedbackright \$1;
#X msg 773 195 /transpositionright \$1;
#X msg 923 158 /windowleft \$1;
#X msg 1025 125 /windowright \$1;
#X obj 1022 155 t b a;
#X obj 1020 183 sssad/sssad granularLive-windowright;
#X obj 650 473 route list;
#X obj 925 185 t b a;
#X obj 924 215 sssad/sssad granularLive-windowleft;
#X obj 775 223 t b a;
#X obj 773 251 sssad/sssad granularLive-transpositionright;
#X obj 625 254 t b a;
#X obj 623 282 sssad/sssad granularLive-transpositionleft;
#X obj 510 298 t b a;
#X obj 498 333 sssad/sssad granularLive-feedbackright;
#X obj 400 345 t b a;
#X obj 398 373 sssad/sssad granularLive-transpositionleft;
#X obj 205 389 t b a;
#X obj 203 417 sssad/sssad granularLive-wet;
#X connect 0 0 19 0;
#X connect 1 0 10 0;
#X connect 2 0 10 1;
#X connect 5 0 7 0;
#X connect 6 0 37 0;
#X connect 7 0 6 0;
#X connect 8 0 14 0;
#X connect 9 0 13 0;
#X connect 10 0 3 0;
#X connect 10 1 4 0;
#X connect 11 0 21 0;
#X connect 12 0 35 0;
#X connect 13 0 20 0;
#X connect 14 0 12 0;
#X connect 15 0 31 0;
#X connect 16 0 15 0;
#X connect 17 0 22 0;
#X connect 18 0 23 0;
#X connect 19 0 5 0;
#X connect 19 1 8 0;
#X connect 19 2 9 0;
#X connect 19 3 16 0;
#X connect 19 4 11 0;
#X connect 19 5 17 0;
#X connect 19 6 18 0;
#X connect 20 0 33 0;
#X connect 21 0 29 0;
#X connect 22 0 27 0;
#X connect 23 0 24 0;
#X connect 24 0 25 0;
#X connect 24 1 25 1;
#X connect 25 0 26 0;
#X connect 26 0 10 2;
#X connect 27 0 28 0;
#X connect 27 1 28 1;
#X connect 28 0 26 0;
#X connect 29 0 30 0;
#X connect 29 1 30 1;
#X connect 30 0 26 0;
#X connect 31 0 32 0;
#X connect 31 1 32 1;
#X connect 32 0 26 0;
#X connect 33 0 34 0;
#X connect 33 1 34 1;
#X connect 34 0 26 0;
#X connect 35 0 36 0;
#X connect 35 1 36 1;
#X connect 36 0 26 0;
#X connect 37 0 38 0;
#X connect 37 1 38 1;
#X connect 38 0 26 0;
