#N canvas 0 25 1272 692 10;
#X obj 278 120 inlet;
#X obj 168 110 inlet~;
#X obj 198 500 outlet~;
#X obj 84 114 inlet~;
#X obj 114 504 outlet~;
#X obj 136 433 mtl/FFTComp~ /id FFTComp;
#X obj 310 191 random 100;
#X obj 310 220 / 100;
#X msg 310 249 compression \$1;
#X obj 529 195 random 11;
#X obj 281 151 t b b b;
#X msg 530 219 FFTSize \$1;
#X msg 713 221 FFToverlap \$1;
#X obj 714 192 random 4;
#X obj 714 248 t b a;
#X obj 698 274 sssad/sssad FFTComp-FFToverlap;
#X obj 493 362 route list;
#X obj 528 251 t b a;
#X obj 512 277 sssad/sssad FFTComp-FFTSize;
#X obj 308 275 t b a;
#X obj 307 298 sssad/sssad FFTComp-compression;
#X connect 0 0 10 0;
#X connect 1 0 5 1;
#X connect 3 0 5 0;
#X connect 5 0 4 0;
#X connect 5 1 2 0;
#X connect 6 0 7 0;
#X connect 7 0 8 0;
#X connect 8 0 19 0;
#X connect 9 0 11 0;
#X connect 10 0 6 0;
#X connect 10 1 9 0;
#X connect 10 2 13 0;
#X connect 11 0 17 0;
#X connect 12 0 14 0;
#X connect 13 0 12 0;
#X connect 14 0 15 0;
#X connect 14 1 15 1;
#X connect 15 0 16 0;
#X connect 16 0 5 2;
#X connect 17 0 18 0;
#X connect 17 1 18 1;
#X connect 18 0 16 0;
#X connect 19 0 20 0;
#X connect 19 1 20 1;
#X connect 20 0 16 0;
