#N canvas 0 25 1272 692 10;
#X obj 583 78 inlet;
#X obj 382 207 random 100;
#X obj 391 235 / 100;
#X msg 382 266 /wet \$1;
#X obj 168 110 inlet~;
#X obj 253 107 inlet~;
#X obj 198 500 outlet~;
#X obj 305 498 outlet~;
#X obj 564 197 random 100;
#X obj 562 228 / 100;
#X msg 557 256 /rate \$1;
#X obj 583 125 t b b;
#X obj 197 455 mtl/phaser~ /id phaser;
#X obj 557 291 t b a;
#X obj 555 319 sssad/sssad phaser-rate;
#X obj 496 382 route list;
#X obj 382 301 t b a;
#X obj 380 329 sssad/sssad phaser-wet;
#X connect 0 0 11 0;
#X connect 1 0 2 0;
#X connect 2 0 3 0;
#X connect 3 0 16 0;
#X connect 4 0 12 0;
#X connect 5 0 12 1;
#X connect 8 0 9 0;
#X connect 9 0 10 0;
#X connect 10 0 13 0;
#X connect 11 0 1 0;
#X connect 11 1 8 0;
#X connect 12 0 6 0;
#X connect 12 1 7 0;
#X connect 13 0 14 0;
#X connect 13 1 14 1;
#X connect 14 0 15 0;
#X connect 15 0 12 2;
#X connect 16 0 17 0;
#X connect 16 1 17 1;
#X connect 17 0 15 0;
