#N canvas 0 25 1272 692 10;
#X obj 482 100 inlet;
#X obj 168 110 inlet~;
#X obj 253 107 inlet~;
#X obj 198 500 outlet~;
#X obj 305 498 outlet~;
#X obj 370 213 random 100;
#X msg 327 283 /wet \$1;
#X obj 339 254 / 100;
#X obj 442 209 random 100;
#X obj 637 195 random 100;
#X obj 195 461 mtl/reverbFree~ /id reverbFree;
#X msg 1030 211 /freeze \$1;
#X obj 1017 181 random 1;
#X obj 479 140 t b b b b b;
#X msg 434 260 /width \$1;
#X obj 446 231 / 100;
#X msg 615 274 /roomsize \$1;
#X obj 636 224 + 1;
#X obj 633 252 / 50;
#X obj 829 207 random 200;
#X obj 832 240 / 100;
#X msg 828 265 /damping \$1;
#X obj 1028 242 t b a;
#X obj 1009 272 sssad/sssad reverbfree-freeze;
#X obj 704 440 route list;
#X obj 822 297 t b a;
#X obj 803 327 sssad/sssad reverbfree-damping;
#X obj 618 310 t b a;
#X obj 599 340 sssad/sssad reverbfree-roomsize;
#X obj 444 283 t b a;
#X obj 424 313 sssad/sssad reverbfree-width;
#X obj 344 324 t b a;
#X obj 308 363 sssad/sssad reverbfree-wet;
#X connect 0 0 13 0;
#X connect 1 0 10 0;
#X connect 2 0 10 1;
#X connect 5 0 7 0;
#X connect 6 0 31 0;
#X connect 7 0 6 0;
#X connect 8 0 15 0;
#X connect 9 0 17 0;
#X connect 10 0 3 0;
#X connect 10 1 4 0;
#X connect 11 0 22 0;
#X connect 12 0 11 0;
#X connect 13 0 5 0;
#X connect 13 1 8 0;
#X connect 13 2 9 0;
#X connect 13 3 19 0;
#X connect 13 4 12 0;
#X connect 14 0 29 0;
#X connect 15 0 14 0;
#X connect 16 0 27 0;
#X connect 17 0 18 0;
#X connect 18 0 16 0;
#X connect 19 0 20 0;
#X connect 20 0 21 0;
#X connect 21 0 25 0;
#X connect 22 0 23 0;
#X connect 22 1 23 1;
#X connect 23 0 24 0;
#X connect 24 0 10 2;
#X connect 25 0 26 0;
#X connect 25 1 26 1;
#X connect 26 0 24 0;
#X connect 27 0 28 0;
#X connect 27 1 28 1;
#X connect 28 0 24 0;
#X connect 29 0 30 0;
#X connect 29 1 30 1;
#X connect 30 0 24 0;
#X connect 31 0 32 0;
#X connect 31 1 32 1;
#X connect 32 0 24 0;
