#N canvas 1 82 1364 661 10;
#X obj 435 86 loadbang;
#X text 522 307 Right outlet outputs the current pattern on every modification
;
#X msg 514 409 9 0 12 0 9 0 12 2 8 1 7 0 0 2 4 2;
#X floatatom 238 165 5 0 0 0 - - -;
#X obj 513 383 cyclone/prepend set;
#X text 23 40 tags: sequencing;
#X obj 239 95 loadbang;
#X obj 240 117 tgl 15 0 empty empty empty 17 7 0 10 -262144 -1 -1 1
1;
#X obj 238 139 mtl/clkSlave 2 8;
#X obj 225 441 mtl/beep~ /id beep;
#X obj 237 514 dac~;
#X obj 348 14 mtl/clkMaster 120;
#X obj 363 115 bng 15 250 50 0 empty empty empty 17 7 0 10 -262144
-1 -1;
#X text 12 23 Description: Pseudo Random Pattern Generator.;
#X obj 159 285 mtl/seq1x8-midi-nbx;
#X obj 376 192 ptl/random-seq1x8-midi-nbx;
#X connect 0 0 15 0;
#X connect 3 0 14 0;
#X connect 4 0 2 0;
#X connect 6 0 7 0;
#X connect 7 0 8 0;
#X connect 8 0 3 0;
#X connect 9 0 10 0;
#X connect 9 0 10 1;
#X connect 12 0 15 0;
#X connect 14 0 9 0;
#X connect 15 0 14 1;
