#N canvas 0 1 1272 692 10;
#X obj 394 72 inlet;
#X obj 40 109 inlet~;
#X obj 110 476 outlet~;
#X obj 257 476 outlet~;
#X obj 124 110 inlet~;
#X obj 365 166 random 100;
#X obj 366 190 / 100;
#X msg 367 217 /wet \$1;
#X obj 838 173 random 100;
#X obj 121 413 mtl/doubling~ /id doubling;
#X msg 544 227 /amplitude \$1;
#X obj 559 175 random 199;
#X obj 553 202 + 1;
#X msg 833 232 /frequency \$1;
#X obj 840 200 / 100;
#X obj 1095 148 random 80;
#X obj 394 119 t b b b b;
#X obj 1096 181 / 20;
#X obj 1100 214 + 1;
#X msg 1099 241 /offset \$1;
#X obj 1094 264 t b a;
#X obj 1088 294 sssad/sssad doubling-offset;
#X obj 491 368 route list;
#X obj 834 262 t b a;
#X obj 828 292 sssad/sssad doubling-frequency;
#X obj 546 255 t b a;
#X obj 539 285 sssad/sssad doubling-amplitude;
#X obj 367 245 t b a;
#X obj 361 273 sssad/sssad doubling-wet;
#X connect 0 0 16 0;
#X connect 1 0 9 0;
#X connect 4 0 9 1;
#X connect 5 0 6 0;
#X connect 6 0 7 0;
#X connect 7 0 27 0;
#X connect 8 0 14 0;
#X connect 9 0 2 0;
#X connect 9 1 3 0;
#X connect 10 0 25 0;
#X connect 11 0 12 0;
#X connect 12 0 10 0;
#X connect 13 0 23 0;
#X connect 14 0 13 0;
#X connect 15 0 17 0;
#X connect 16 0 5 0;
#X connect 16 1 11 0;
#X connect 16 2 8 0;
#X connect 16 3 15 0;
#X connect 17 0 18 0;
#X connect 18 0 19 0;
#X connect 19 0 20 0;
#X connect 20 0 21 0;
#X connect 20 1 21 1;
#X connect 21 0 22 0;
#X connect 22 0 9 2;
#X connect 23 0 24 0;
#X connect 23 1 24 1;
#X connect 24 0 22 0;
#X connect 25 0 26 0;
#X connect 25 1 26 1;
#X connect 26 0 22 0;
#X connect 27 0 28 0;
#X connect 27 1 28 1;
#X connect 28 0 22 0;
