#N canvas 0 25 1272 692 10;
#X obj 482 100 inlet;
#X msg 404 265 /wet \$1;
#X obj 168 110 inlet~;
#X obj 253 107 inlet~;
#X obj 198 500 outlet~;
#X obj 305 498 outlet~;
#X obj 406 208 random 100;
#X obj 405 239 / 100;
#X obj 206 457 mtl/echoVd~ /id echoVd;
#X obj 813 185 random 100;
#X msg 812 245 /strength \$1;
#X msg 619 241 /delay \$1;
#X obj 616 212 random 5000;
#X obj 812 214 / 100;
#X obj 479 140 t b b b;
#X obj 807 271 t b a;
#X obj 799 302 sssad/sssad echoVd-strength;
#X obj 649 370 route list;
#X obj 618 267 t b a;
#X obj 610 298 sssad/sssad echoVd-delay;
#X obj 411 293 t b a;
#X obj 403 324 sssad/sssad echoVd-wet;
#X connect 0 0 14 0;
#X connect 1 0 20 0;
#X connect 2 0 8 0;
#X connect 3 0 8 1;
#X connect 6 0 7 0;
#X connect 7 0 1 0;
#X connect 8 0 4 0;
#X connect 8 1 5 0;
#X connect 9 0 13 0;
#X connect 10 0 15 0;
#X connect 11 0 18 0;
#X connect 12 0 11 0;
#X connect 13 0 10 0;
#X connect 14 0 6 0;
#X connect 14 1 12 0;
#X connect 14 2 9 0;
#X connect 15 0 16 0;
#X connect 15 1 16 1;
#X connect 16 0 17 0;
#X connect 17 0 8 2;
#X connect 18 0 19 0;
#X connect 18 1 19 1;
#X connect 19 0 17 0;
#X connect 20 0 21 0;
#X connect 20 1 21 1;
#X connect 21 0 17 0;
