#N canvas 0 25 1272 692 10;
#X obj 278 120 inlet;
#X obj 84 114 inlet~;
#X obj 114 504 outlet~;
#X obj 138 110 inlet~;
#X obj 168 500 outlet~;
#X obj 258 185 random 20;
#X obj 112 379 shape~;
#X obj 166 375 shape~;
#X obj 269 212 - 10;
#X obj 274 251 t b a;
#X obj 255 281 sssad/sssad shape;
#X connect 0 0 5 0;
#X connect 1 0 6 0;
#X connect 3 0 7 0;
#X connect 5 0 8 0;
#X connect 6 0 2 0;
#X connect 7 0 4 0;
#X connect 8 0 9 0;
#X connect 9 0 10 0;
#X connect 9 1 10 1;
#X connect 10 0 7 1;
#X connect 10 0 6 1;
