#N canvas 0 25 1272 692 10;
#X obj 583 78 inlet;
#X obj 361 165 random 100;
#X obj 370 193 / 100;
#X msg 361 224 /wet \$1;
#X obj 168 110 inlet~;
#X obj 253 107 inlet~;
#X obj 198 500 outlet~;
#X obj 305 498 outlet~;
#X obj 621 184 random 100;
#X obj 583 125 t b b;
#X obj 194 372 mtl/pvoc-reverb~ /id pvoc-reverb;
#X msg 607 211 /revtime \$1;
#X obj 608 243 t b a;
#X obj 605 271 sssad/sssad pvoc-reverb-revtime;
#X obj 598 313 route list;
#X obj 347 257 t b a;
#X obj 344 285 sssad/sssad pvoc-reverb-wet;
#X connect 0 0 9 0;
#X connect 1 0 2 0;
#X connect 2 0 3 0;
#X connect 3 0 15 0;
#X connect 4 0 10 0;
#X connect 5 0 10 1;
#X connect 8 0 11 0;
#X connect 9 0 1 0;
#X connect 9 1 8 0;
#X connect 10 0 6 0;
#X connect 10 1 7 0;
#X connect 11 0 12 0;
#X connect 12 0 13 0;
#X connect 12 1 13 1;
#X connect 13 0 14 0;
#X connect 14 0 10 2;
#X connect 15 0 16 0;
#X connect 15 1 16 1;
#X connect 16 0 14 0;
