#N canvas 0 25 1272 692 10;
#X obj 482 100 inlet;
#X obj 168 110 inlet~;
#X obj 253 107 inlet~;
#X obj 198 500 outlet~;
#X obj 305 498 outlet~;
#X obj 397 210 random 100;
#X msg 384 265 /wet \$1;
#X obj 396 236 / 100;
#X obj 202 445 mtl/rect-down~ /id rect-down;
#X obj 634 171 random 100;
#X obj 632 199 / 50;
#X msg 627 232 /rect-down \$1;
#X obj 479 140 t b b;
#X obj 628 263 t b a;
#X obj 625 290 sssad/sssad rect-down-rect-down;
#X obj 561 369 route list;
#X obj 387 288 t b a;
#X obj 387 317 sssad/sssad rect-down-wet;
#X connect 0 0 12 0;
#X connect 1 0 8 0;
#X connect 2 0 8 1;
#X connect 5 0 7 0;
#X connect 6 0 16 0;
#X connect 7 0 6 0;
#X connect 8 0 3 0;
#X connect 8 1 4 0;
#X connect 9 0 10 0;
#X connect 10 0 11 0;
#X connect 11 0 13 0;
#X connect 12 0 5 0;
#X connect 12 1 9 0;
#X connect 13 0 14 0;
#X connect 13 1 14 1;
#X connect 14 0 15 0;
#X connect 15 0 8 2;
#X connect 16 0 17 0;
#X connect 16 1 17 1;
#X connect 17 0 15 0;
