#N canvas 0 25 1272 692 10;
#X obj 394 72 inlet;
#X obj 204 199 random 100;
#X obj 213 227 / 100;
#X msg 204 251 /wet \$1;
#X obj 40 109 inlet~;
#X obj 138 648 outlet~;
#X obj 263 640 outlet~;
#X obj 399 159 random 100;
#X obj 396 190 / 100;
#X obj 144 422 mtl/fiboverb~ /id fiboverb;
#X msg 385 219 /seqscaler \$1;
#X msg 580 237 /seqstartr \$1;
#X obj 581 185 random 18;
#X obj 582 209 + 3;
#X msg 764 204 /directiononoffr \$1;
#X obj 767 178 random 1;
#X obj 394 119 t b b b b;
#X obj 764 230 t b a;
#X obj 763 259 sssad/sssad fiboverb-directiononoffr;
#X obj 570 362 route list;
#X obj 579 260 t b a;
#X obj 578 289 sssad/sssad fiboverb-seqstar;
#X obj 388 250 t b a;
#X obj 387 279 sssad/sssad fiboverb-seqscaler;
#X obj 203 281 t b a;
#X obj 202 310 sssad/sssad fiboverb-wet;
#X obj 124 106 inlet~;
#X connect 0 0 16 0;
#X connect 1 0 2 0;
#X connect 2 0 3 0;
#X connect 3 0 24 0;
#X connect 4 0 9 0;
#X connect 7 0 8 0;
#X connect 8 0 10 0;
#X connect 9 0 5 0;
#X connect 9 1 6 0;
#X connect 10 0 22 0;
#X connect 11 0 20 0;
#X connect 12 0 13 0;
#X connect 13 0 11 0;
#X connect 14 0 17 0;
#X connect 15 0 14 0;
#X connect 16 0 1 0;
#X connect 16 1 7 0;
#X connect 16 2 12 0;
#X connect 16 3 15 0;
#X connect 17 0 18 0;
#X connect 17 1 18 1;
#X connect 18 0 19 0;
#X connect 19 0 9 1;
#X connect 20 0 21 0;
#X connect 20 1 21 1;
#X connect 21 0 19 0;
#X connect 22 0 23 0;
#X connect 22 1 23 1;
#X connect 23 0 19 0;
#X connect 24 0 25 0;
#X connect 24 1 25 1;
#X connect 25 0 19 0;
