#N canvas 0 1 1272 692 10;
#X obj 507 12 inlet;
#X obj 372 229 random 100;
#X obj 381 257 / 100;
#X msg 372 288 /wet \$1;
#X obj 168 110 inlet~;
#X obj 253 107 inlet~;
#X obj 198 500 outlet~;
#X obj 305 498 outlet~;
#X obj 513 235 / 100;
#X obj 196 454 mtl/distoFuzz~ /id distoFuzz;
#X obj 616 170 random 100;
#X obj 624 197 / 100;
#X obj 704 155 / 100;
#X obj 836 131 random 100;
#X obj 838 157 / 100;
#X obj 926 139 / 100;
#X msg 496 265 /pregain \$1;
#X msg 613 223 /fuzz \$1;
#X msg 687 186 /clip \$1;
#X msg 840 182 /lowpass \$1;
#X msg 926 163 /postgain \$1;
#X msg 1098 152 /difference \$1;
#X obj 504 52 t b b b b b b b;
#X obj 1099 124 random 1;
#X obj 514 207 random 100;
#X obj 705 127 random 100;
#X obj 924 113 random 100;
#X obj 1101 184 t b a;
#X obj 1095 215 sssad/sssad fuzz-difference;
#X obj 542 410 route list;
#X obj 924 186 t b a;
#X obj 926 212 sssad/sssad fuzz-postgain;
#X obj 838 213 t b a;
#X obj 832 244 sssad/sssad fuzz-lowpass;
#X obj 694 214 t b a;
#X obj 688 245 sssad/sssad fuzz-clip;
#X obj 615 250 t b a;
#X obj 609 281 sssad/sssad fuzz-fuzz;
#X obj 511 289 t b a;
#X obj 505 320 sssad/sssad fuzz-pregain;
#X obj 382 335 t b a;
#X obj 376 366 sssad/sssad fuzz-wet;
#X connect 0 0 22 0;
#X connect 1 0 2 0;
#X connect 2 0 3 0;
#X connect 3 0 40 0;
#X connect 4 0 9 0;
#X connect 5 0 9 1;
#X connect 8 0 16 0;
#X connect 9 0 6 0;
#X connect 9 1 7 0;
#X connect 10 0 11 0;
#X connect 11 0 17 0;
#X connect 12 0 18 0;
#X connect 13 0 14 0;
#X connect 14 0 19 0;
#X connect 15 0 20 0;
#X connect 16 0 38 0;
#X connect 17 0 36 0;
#X connect 18 0 34 0;
#X connect 19 0 32 0;
#X connect 20 0 30 0;
#X connect 21 0 27 0;
#X connect 22 0 1 0;
#X connect 22 1 24 0;
#X connect 22 2 10 0;
#X connect 22 3 25 0;
#X connect 22 4 13 0;
#X connect 22 5 26 0;
#X connect 22 6 23 0;
#X connect 23 0 21 0;
#X connect 24 0 8 0;
#X connect 25 0 12 0;
#X connect 26 0 15 0;
#X connect 27 0 28 0;
#X connect 27 1 28 1;
#X connect 28 0 29 0;
#X connect 29 0 9 2;
#X connect 30 0 31 0;
#X connect 30 1 31 1;
#X connect 31 0 29 0;
#X connect 32 0 33 0;
#X connect 32 1 33 1;
#X connect 33 0 29 0;
#X connect 34 0 35 0;
#X connect 34 1 35 1;
#X connect 35 0 29 0;
#X connect 36 0 37 0;
#X connect 36 1 37 1;
#X connect 37 0 29 0;
#X connect 38 0 39 0;
#X connect 38 1 39 1;
#X connect 39 0 29 0;
#X connect 40 0 41 0;
#X connect 40 1 41 1;
#X connect 41 0 29 0;
