#N canvas 0 25 1272 692 10;
#X obj 524 51 inlet;
#X obj 242 115 inlet~;
#X obj 327 112 inlet~;
#X obj 272 505 outlet~;
#X obj 379 503 outlet~;
#X obj 271 379 mtl/bufferfx~ /id bufferfx;
#X obj 583 167 random 970;
#X obj 588 192 + 30;
#X msg 581 216 /update \$1;
#X obj 392 165 random 67;
#X obj 401 193 + 3;
#X msg 393 217 /length \$1;
#X obj 524 98 t b b b;
#X msg 761 227 /wet \$1;
#X obj 756 172 random 100;
#X obj 763 200 / 100;
#X obj 400 263 t b a;
#X obj 399 288 sssad/sssad length-bufferfx;
#X obj 521 336 route list;
#X obj 579 261 t b a;
#X obj 578 286 sssad/sssad update-bufferfx;
#X obj 760 264 t b a;
#X obj 759 289 sssad/sssad wet-bufferfx;
#X connect 0 0 12 0;
#X connect 1 0 5 0;
#X connect 2 0 5 1;
#X connect 5 0 3 0;
#X connect 5 1 4 0;
#X connect 6 0 7 0;
#X connect 7 0 8 0;
#X connect 8 0 19 0;
#X connect 9 0 10 0;
#X connect 10 0 11 0;
#X connect 11 0 16 0;
#X connect 12 0 9 0;
#X connect 12 1 6 0;
#X connect 12 2 14 0;
#X connect 13 0 21 0;
#X connect 14 0 15 0;
#X connect 15 0 13 0;
#X connect 16 0 17 0;
#X connect 16 1 17 1;
#X connect 17 0 18 0;
#X connect 18 0 5 2;
#X connect 19 0 20 0;
#X connect 19 1 20 1;
#X connect 20 0 18 0;
#X connect 21 0 22 0;
#X connect 21 1 22 1;
#X connect 22 0 18 0;
