#N canvas 0 25 1272 692 10;
#X obj 583 78 inlet;
#X obj 168 110 inlet~;
#X obj 253 107 inlet~;
#X obj 198 500 outlet~;
#X obj 305 498 outlet~;
#X obj 821 212 random 100;
#X obj 626 217 random 100;
#X obj 189 452 mtl/hardlimit~ /id hardlimit;
#X obj 393 205 random 50;
#X obj 402 233 - 50;
#X msg 374 259 /limit \$1;
#X obj 583 125 t b b b;
#X msg 622 243 /wet_mix \$1;
#X msg 822 237 /residue_mix \$1;
#X obj 823 269 t b a;
#X obj 821 297 sssad/sssad hardlimit-residue_mix;
#X obj 789 370 route list;
#X obj 614 270 t b a;
#X obj 611 298 sssad/sssad granularLive-wet_mix;
#X obj 379 287 t b a;
#X obj 376 315 sssad/sssad granularLive-limit;
#X connect 0 0 11 0;
#X connect 1 0 7 0;
#X connect 2 0 7 1;
#X connect 5 0 13 0;
#X connect 6 0 12 0;
#X connect 7 0 3 0;
#X connect 7 1 4 0;
#X connect 8 0 9 0;
#X connect 9 0 10 0;
#X connect 10 0 19 0;
#X connect 11 0 8 0;
#X connect 11 1 6 0;
#X connect 11 2 5 0;
#X connect 12 0 17 0;
#X connect 13 0 14 0;
#X connect 14 0 15 0;
#X connect 14 1 15 1;
#X connect 15 0 16 0;
#X connect 16 0 7 2;
#X connect 17 0 18 0;
#X connect 17 1 18 1;
#X connect 18 0 16 0;
#X connect 19 0 20 0;
#X connect 19 1 20 1;
#X connect 20 0 16 0;
