#N canvas 0 25 1272 692 10;
#X obj 482 100 inlet;
#X msg 334 242 /wet \$1;
#X obj 168 110 inlet~;
#X obj 253 107 inlet~;
#X obj 198 500 outlet~;
#X obj 305 498 outlet~;
#X obj 336 185 random 100;
#X obj 335 216 / 100;
#X obj 194 450 mtl/echoRobot~ /id echoRobot;
#X obj 507 221 random 100;
#X obj 479 140 t b b;
#X msg 507 245 /amount \$1;
#X obj 503 274 t b a;
#X obj 451 389 route list;
#X obj 334 276 t b a;
#X obj 500 308 sssad/sssad echorobot-amount;
#X obj 331 310 sssad/sssad echorobot-wet;
#X connect 0 0 10 0;
#X connect 1 0 14 0;
#X connect 2 0 8 0;
#X connect 3 0 8 1;
#X connect 6 0 7 0;
#X connect 7 0 1 0;
#X connect 8 0 4 0;
#X connect 8 1 5 0;
#X connect 9 0 11 0;
#X connect 10 0 6 0;
#X connect 10 1 9 0;
#X connect 11 0 12 0;
#X connect 12 0 15 0;
#X connect 12 1 15 1;
#X connect 13 0 8 2;
#X connect 14 0 16 0;
#X connect 14 1 16 1;
#X connect 15 0 13 0;
#X connect 16 0 13 0;
