#N canvas 0 25 1272 692 10;
#X obj 482 100 inlet;
#X obj 491 139 random 100;
#X obj 500 167 / 100;
#X msg 491 198 /wet \$1;
#X obj 168 110 inlet~;
#X obj 253 107 inlet~;
#X obj 198 500 outlet~;
#X obj 305 498 outlet~;
#X obj 200 375 mtl/distoWaveShaper-Jon-Watte~ /id distoSign;
#X obj 491 220 t b a;
#X obj 482 250 sssad/sssad watte-wet;
#X obj 484 281 route list;
#X connect 0 0 1 0;
#X connect 1 0 2 0;
#X connect 2 0 3 0;
#X connect 3 0 9 0;
#X connect 4 0 8 0;
#X connect 5 0 8 1;
#X connect 8 0 6 0;
#X connect 8 1 7 0;
#X connect 9 0 10 0;
#X connect 9 1 10 1;
#X connect 10 0 11 0;
#X connect 11 0 8 2;
