#N canvas 0 25 1272 692 10;
#X obj 394 72 inlet;
#X obj 247 159 random 100;
#X obj 256 187 / 100;
#X msg 247 218 /wet \$1;
#X obj 40 109 inlet~;
#X obj 125 106 inlet~;
#X obj 70 499 outlet~;
#X obj 177 497 outlet~;
#X obj 550 155 random 100;
#X obj 547 186 / 100;
#X obj 71 374 mtl/wavedistort~ /id wavedistort;
#X msg 537 215 /strength \$1;
#X obj 394 119 t b b;
#X obj 386 329 route list;
#X obj 537 241 t b a;
#X obj 252 244 t b a;
#X obj 492 267 sssad/sssad wavedistort-strength;
#X obj 208 270 sssad/sssad wavedistort-wet;
#X connect 0 0 12 0;
#X connect 1 0 2 0;
#X connect 2 0 3 0;
#X connect 3 0 15 0;
#X connect 4 0 10 0;
#X connect 5 0 10 1;
#X connect 8 0 9 0;
#X connect 9 0 11 0;
#X connect 10 0 6 0;
#X connect 10 1 7 0;
#X connect 11 0 14 0;
#X connect 12 0 1 0;
#X connect 12 1 8 0;
#X connect 13 0 10 2;
#X connect 14 0 16 0;
#X connect 14 1 16 1;
#X connect 15 0 17 0;
#X connect 15 1 17 1;
#X connect 16 0 13 0;
#X connect 17 0 13 0;
