#N canvas 0 25 1272 692 10;
#X obj 84 114 inlet~;
#X obj 63 508 outlet~;
#X obj 138 110 inlet~;
#X obj 218 500 outlet~;
#X obj 84 374 valverect~;
#X obj 207 375 valverect~;
#X obj 200 201 random 100;
#X obj 197 226 / 100;
#X obj 250 176 t b b;
#X obj 253 109 inlet;
#X obj 376 202 random 100;
#X obj 377 225 / 100;
#X obj 200 255 t b a;
#X obj 158 281 sssad/sssad valverect-a;
#X obj 350 258 t b a;
#X obj 308 284 sssad/sssad valverect-b;
#X connect 0 0 4 0;
#X connect 2 0 5 0;
#X connect 4 0 1 0;
#X connect 5 0 3 0;
#X connect 6 0 7 0;
#X connect 7 0 12 0;
#X connect 8 0 6 0;
#X connect 8 1 10 0;
#X connect 9 0 8 0;
#X connect 10 0 11 0;
#X connect 11 0 14 0;
#X connect 12 0 13 0;
#X connect 12 1 13 1;
#X connect 13 0 4 1;
#X connect 13 0 5 1;
#X connect 14 0 15 0;
#X connect 14 1 15 1;
#X connect 15 0 4 2;
#X connect 15 0 5 2;
