#N canvas 0 1 1272 692 10;
#X obj 641 -148 inlet;
#X obj 2 56 random 100;
#X obj 11 84 / 100;
#X msg 2 115 /wet \$1;
#X obj 9 -132 inlet~;
#X obj 58 481 outlet~;
#X obj 241 491 outlet~;
#X obj 74 326 mtl/granulator~ /id granulator;
#X obj 73 57 random 99;
#X obj 70 88 + 1;
#X msg 58 117 /amp \$1;
#X msg 133 119 /rng-amp \$1;
#X obj 141 90 + 1;
#X obj 140 57 random 99;
#X obj 218 59 random 100;
#X msg 220 120 /ctr-pan \$1;
#X obj 296 58 random 100;
#X msg 298 119 /rng-pan \$1;
#X msg 381 118 /ctr-trn \$1;
#X obj 378 88 - 1200;
#X obj 379 57 random 2400;
#X obj 460 90 - 1200;
#X obj 461 59 random 2400;
#X msg 463 120 /rng-trn \$1;
#X msg 543 120 /ctr-dur \$1;
#X msg 620 122 /rng-dur \$1;
#X obj 542 59 random 490;
#X obj 541 90 + 10;
#X obj 618 61 random 490;
#X obj 617 92 + 10;
#X obj 701 62 random 495;
#X obj 700 93 + 5;
#X msg 702 123 /ctr-iot \$1;
#X obj 777 64 random 495;
#X obj 776 95 + 5;
#X msg 779 125 /rng-iot \$1;
#X obj 860 64 random 296;
#X obj 865 93 + 2;
#X msg 861 125 /ctr-shp \$1;
#X obj 936 66 random 296;
#X obj 935 97 + 2;
#X msg 938 127 /rng-shp \$1;
#X obj 1014 61 random 296;
#X obj 1019 90 + 2;
#X obj 1090 63 random 296;
#X obj 1089 94 + 2;
#X msg 1015 122 /ctr-skw \$1;
#X msg 1092 124 /rng-skw \$1;
#X obj 995 187 random 80000;
#X obj 1071 189 random 80000;
#X obj 1000 216 / 10;
#X obj 1070 220 / 10;
#X msg 995 248 /ctr-dlt \$1;
#X msg 1073 250 /rng-dlt \$1;
#X obj 992 -63 t b b b b b b b b b b b b b b b b b b b;
#X obj 1179 61 random 95;
#X msg 1174 123 /fb-lvl \$1;
#X msg 1250 121 /nvoices \$1;
#X obj 1251 61 random 15;
#X obj 1252 94 + 1;
#X obj 101 -134 inlet~;
#X connect 0 0 54 0;
#X connect 1 0 2 0;
#X connect 2 0 3 0;
#X connect 3 0 7 1;
#X connect 4 0 7 0;
#X connect 7 0 5 0;
#X connect 7 1 6 0;
#X connect 8 0 9 0;
#X connect 9 0 10 0;
#X connect 10 0 7 1;
#X connect 11 0 7 1;
#X connect 12 0 11 0;
#X connect 13 0 12 0;
#X connect 14 0 15 0;
#X connect 15 0 7 1;
#X connect 16 0 17 0;
#X connect 17 0 7 1;
#X connect 18 0 7 1;
#X connect 19 0 18 0;
#X connect 20 0 19 0;
#X connect 21 0 23 0;
#X connect 22 0 21 0;
#X connect 23 0 7 1;
#X connect 24 0 7 1;
#X connect 25 0 7 1;
#X connect 26 0 27 0;
#X connect 27 0 24 0;
#X connect 28 0 29 0;
#X connect 29 0 25 0;
#X connect 30 0 31 0;
#X connect 31 0 32 0;
#X connect 32 0 7 1;
#X connect 33 0 34 0;
#X connect 34 0 35 0;
#X connect 35 0 7 1;
#X connect 36 0 37 0;
#X connect 37 0 38 0;
#X connect 38 0 7 1;
#X connect 39 0 40 0;
#X connect 40 0 41 0;
#X connect 41 0 7 1;
#X connect 42 0 43 0;
#X connect 43 0 46 0;
#X connect 44 0 45 0;
#X connect 45 0 47 0;
#X connect 46 0 7 1;
#X connect 47 0 7 1;
#X connect 48 0 50 0;
#X connect 49 0 51 0;
#X connect 50 0 52 0;
#X connect 51 0 53 0;
#X connect 52 0 7 1;
#X connect 53 0 7 1;
#X connect 54 0 1 0;
#X connect 54 1 8 0;
#X connect 54 2 13 0;
#X connect 54 3 14 0;
#X connect 54 4 16 0;
#X connect 54 5 20 0;
#X connect 54 6 22 0;
#X connect 54 7 26 0;
#X connect 54 8 28 0;
#X connect 54 9 30 0;
#X connect 54 10 33 0;
#X connect 54 11 36 0;
#X connect 54 12 39 0;
#X connect 54 13 42 0;
#X connect 54 14 44 0;
#X connect 54 15 48 0;
#X connect 54 16 49 0;
#X connect 54 17 55 0;
#X connect 54 18 58 0;
#X connect 55 0 56 0;
#X connect 56 0 7 1;
#X connect 58 0 59 0;
#X connect 59 0 57 0;
