#N canvas 0 0 1272 692 10;
#X obj 583 78 inlet;
#X obj 435 227 random 100;
#X obj 444 255 / 100;
#X msg 435 286 /wet \$1;
#X obj 168 110 inlet~;
#X obj 253 107 inlet~;
#X obj 198 500 outlet~;
#X obj 305 498 outlet~;
#X obj 756 227 random 100;
#X obj 753 249 / 100;
#X msg 750 271 /multiplier \$1;
#X obj 583 125 t b b;
#X obj 177 456 mtl/octave.divider~ /id octave.divider;
#X obj 750 310 t b a;
#X obj 724 339 sssad/sssad octavedivider-multiplier;
#X obj 739 405 route list;
#X obj 439 315 t b a;
#X obj 413 344 sssad/sssad octavedivider-wet;
#X connect 0 0 11 0;
#X connect 1 0 2 0;
#X connect 2 0 3 0;
#X connect 3 0 16 0;
#X connect 4 0 12 0;
#X connect 5 0 12 1;
#X connect 8 0 9 0;
#X connect 9 0 10 0;
#X connect 10 0 13 0;
#X connect 11 0 1 0;
#X connect 11 1 8 0;
#X connect 12 0 6 0;
#X connect 12 1 7 0;
#X connect 13 0 14 0;
#X connect 13 1 14 1;
#X connect 14 0 15 0;
#X connect 15 0 12 2;
#X connect 16 0 17 0;
#X connect 16 1 17 1;
#X connect 17 0 15 0;
