#N canvas 0 25 1272 692 10;
#X obj 583 78 inlet;
#X obj 393 205 random 100;
#X obj 402 233 / 100;
#X msg 393 264 /wet \$1;
#X obj 168 110 inlet~;
#X obj 253 107 inlet~;
#X obj 198 500 outlet~;
#X obj 305 498 outlet~;
#X obj 746 210 random 100;
#X obj 595 203 random 100;
#X obj 200 457 mtl/fuzz2~ /id fuzz2;
#X obj 583 125 t b b b;
#X msg 579 263 /drive \$1;
#X obj 595 232 / 100;
#X msg 739 265 /fuzz \$1;
#X obj 753 236 / 50;
#X obj 739 289 t b a;
#X obj 723 315 sssad/sssad fuzz2-fuzz;
#X obj 585 392 route list;
#X obj 573 294 t b a;
#X obj 557 320 sssad/sssad fuzz2-drive;
#X obj 395 312 t b a;
#X obj 379 338 sssad/sssad fuzz2-wet;
#X connect 0 0 11 0;
#X connect 1 0 2 0;
#X connect 2 0 3 0;
#X connect 3 0 21 0;
#X connect 4 0 10 0;
#X connect 5 0 10 1;
#X connect 8 0 15 0;
#X connect 9 0 13 0;
#X connect 10 0 6 0;
#X connect 10 1 7 0;
#X connect 11 0 1 0;
#X connect 11 1 9 0;
#X connect 11 2 8 0;
#X connect 12 0 19 0;
#X connect 13 0 12 0;
#X connect 14 0 16 0;
#X connect 15 0 14 0;
#X connect 16 0 17 0;
#X connect 16 1 17 1;
#X connect 17 0 18 0;
#X connect 18 0 10 2;
#X connect 19 0 20 0;
#X connect 19 1 20 1;
#X connect 20 0 18 0;
#X connect 21 0 22 0;
#X connect 21 1 22 1;
#X connect 22 0 18 0;
