#N canvas 0 25 1272 692 10;
#X obj 394 72 inlet;
#X obj 219 145 random 100;
#X obj 228 173 / 100;
#X msg 219 204 /wet \$1;
#X obj 40 109 inlet~;
#X obj 125 106 inlet~;
#X obj 70 499 outlet~;
#X obj 177 497 outlet~;
#X obj 595 168 random 100;
#X obj 389 170 random 100;
#X obj 596 201 / 100;
#X obj 386 201 / 100;
#X msg 586 231 /feedback \$1;
#X obj 53 454 mtl/purereverb4~ /id purereverb4;
#X msg 374 230 /dampgen \$1;
#X obj 394 119 t b b b;
#X obj 576 266 t b a;
#X obj 474 370 route list;
#X obj 383 265 t b a;
#X obj 204 226 t b a;
#X obj 203 255 sssad/sssad purereverb4-wet;
#X obj 382 294 sssad/sssad purereverb4-dampgen;
#X obj 575 295 sssad/sssad purereverb4-feedback;
#X connect 0 0 15 0;
#X connect 1 0 2 0;
#X connect 2 0 3 0;
#X connect 3 0 19 0;
#X connect 4 0 13 0;
#X connect 5 0 13 1;
#X connect 8 0 10 0;
#X connect 9 0 11 0;
#X connect 10 0 12 0;
#X connect 11 0 14 0;
#X connect 12 0 16 0;
#X connect 13 0 6 0;
#X connect 13 1 7 0;
#X connect 14 0 18 0;
#X connect 15 0 1 0;
#X connect 15 1 9 0;
#X connect 15 2 8 0;
#X connect 16 0 22 0;
#X connect 16 1 22 1;
#X connect 17 0 13 2;
#X connect 18 0 21 0;
#X connect 18 1 21 1;
#X connect 19 0 20 0;
#X connect 19 1 20 1;
#X connect 20 0 17 0;
#X connect 21 0 17 0;
#X connect 22 0 17 0;
