#N canvas 0 25 1272 692 10;
#X obj 428 116 inlet;
#X obj 467 171 random 100;
#X obj 476 199 / 100;
#X msg 467 230 /wet \$1;
#X obj 168 110 inlet~;
#X obj 253 107 inlet~;
#X obj 198 500 outlet~;
#X obj 305 498 outlet~;
#X obj 195 438 mtl/octave.doubler~ /id octave.doubler;
#X obj 469 260 t b a;
#X obj 414 287 sssad/sssad octavedoubler-wet;
#X obj 492 334 route list;
#X connect 0 0 1 0;
#X connect 1 0 2 0;
#X connect 2 0 3 0;
#X connect 3 0 9 0;
#X connect 4 0 8 0;
#X connect 5 0 8 1;
#X connect 8 0 6 0;
#X connect 8 1 7 0;
#X connect 9 0 10 0;
#X connect 9 1 10 1;
#X connect 10 0 11 0;
#X connect 11 0 8 2;
