#N canvas 0 25 1272 692 10;
#X obj 583 78 inlet;
#X obj 388 186 random 100;
#X obj 397 214 / 100;
#X msg 388 245 /wet \$1;
#X obj 168 110 inlet~;
#X obj 253 107 inlet~;
#X obj 371 523 outlet~;
#X obj 478 521 outlet~;
#X obj 361 443 mtl/delayPhasor~ /id delayPhasor;
#X obj 543 190 random 20000;
#X obj 743 211 random 20000;
#X obj 583 125 t b b b b;
#X msg 555 232 /delay2 \$1;
#X msg 745 242 /delay1 \$1;
#X obj 948 149 random 100;
#X obj 948 181 + 1;
#X obj 948 209 / 100;
#X msg 948 237 /phasor \$1;
#X obj 951 271 t b a;
#X obj 934 298 sssad/sssad delayphasor-phasor;
#X obj 753 271 t b a;
#X obj 736 298 sssad/sssad delayphasor-delay1;
#X obj 557 273 t b a;
#X obj 540 300 sssad/sssad delayphasor-delay2;
#X obj 382 273 t b a;
#X obj 365 300 sssad/sssad delayphasor-wet;
#X obj 678 362 route list;
#X connect 0 0 11 0;
#X connect 1 0 2 0;
#X connect 2 0 3 0;
#X connect 3 0 24 0;
#X connect 4 0 8 0;
#X connect 5 0 8 1;
#X connect 8 0 6 0;
#X connect 8 1 7 0;
#X connect 9 0 12 0;
#X connect 10 0 13 0;
#X connect 11 0 1 0;
#X connect 11 1 9 0;
#X connect 11 2 10 0;
#X connect 11 3 14 0;
#X connect 12 0 22 0;
#X connect 13 0 20 0;
#X connect 14 0 15 0;
#X connect 15 0 16 0;
#X connect 16 0 17 0;
#X connect 17 0 18 0;
#X connect 18 0 19 0;
#X connect 18 1 19 1;
#X connect 19 0 26 0;
#X connect 20 0 21 0;
#X connect 20 1 21 1;
#X connect 21 0 26 0;
#X connect 22 0 23 0;
#X connect 22 1 23 1;
#X connect 23 0 26 0;
#X connect 24 0 25 0;
#X connect 24 1 25 1;
#X connect 25 0 26 0;
#X connect 26 0 8 2;
