#N canvas 0 25 1272 692 10;
#X obj 482 100 inlet;
#X obj 168 110 inlet~;
#X obj 253 107 inlet~;
#X obj 296 560 outlet~;
#X obj 403 558 outlet~;
#X obj 479 140 t b b b;
#X obj 405 223 random 100;
#X obj 605 207 random 1;
#X obj 764 210 random 1;
#X obj 292 510 mtl/reverbCm~ /id reverbCm;
#X msg 603 257 /delay \$1;
#X msg 766 257 /feedback \$1;
#X msg 395 277 /wet \$1;
#X obj 407 248 / 100;
#X obj 606 232 / 100;
#X obj 768 233 / 100;
#X obj 765 280 t b a;
#X obj 654 410 route list;
#X obj 761 311 sssad/sssad cm-feedback;
#X obj 598 284 t b a;
#X obj 601 315 sssad/sssad cm-delay;
#X obj 396 304 t b a;
#X obj 398 335 sssad/sssad cm-wet;
#X connect 0 0 5 0;
#X connect 1 0 9 0;
#X connect 2 0 9 1;
#X connect 5 0 6 0;
#X connect 5 1 7 0;
#X connect 5 2 8 0;
#X connect 6 0 13 0;
#X connect 7 0 14 0;
#X connect 8 0 15 0;
#X connect 9 0 3 0;
#X connect 9 1 4 0;
#X connect 10 0 19 0;
#X connect 11 0 16 0;
#X connect 12 0 21 0;
#X connect 13 0 12 0;
#X connect 14 0 10 0;
#X connect 15 0 11 0;
#X connect 16 0 18 0;
#X connect 16 1 18 1;
#X connect 17 0 9 2;
#X connect 18 0 17 0;
#X connect 19 0 20 0;
#X connect 19 1 20 1;
#X connect 20 0 17 0;
#X connect 21 0 22 0;
#X connect 21 1 22 1;
#X connect 22 0 17 0;
