#N canvas 0 25 1272 692 10;
#X obj 84 114 inlet~;
#X obj 153 602 outlet~;
#X obj 138 110 inlet~;
#X obj 207 598 outlet~;
#X obj 283 110 inlet;
#X obj 233 232 random 100;
#X obj 233 260 / 100;
#X obj 528 223 random 100;
#X obj 528 251 / 100;
#X obj 701 227 random 100;
#X obj 701 255 / 100;
#X obj 889 233 random 100;
#X obj 889 261 / 100;
#X obj 121 563 mtl/vibrato~ /id vibrato;
#X msg 232 294 /feedback \$1;
#X obj 298 162 t b b b b;
#X msg 526 284 /speed \$1;
#X msg 699 289 /phase \$1;
#X msg 889 285 /depth \$1;
#X obj 891 309 t b a;
#X obj 871 340 sssad/sssad vibrato-depth;
#X obj 624 420 route list;
#X obj 698 316 t b a;
#X obj 678 347 sssad/sssad vibrato-phase;
#X obj 519 319 t b a;
#X obj 503 350 sssad/sssad vibrato-speed;
#X obj 265 321 t b a;
#X obj 249 352 sssad/sssad vibrato-feedback;
#X connect 0 0 13 0;
#X connect 2 0 13 1;
#X connect 4 0 15 0;
#X connect 5 0 6 0;
#X connect 6 0 14 0;
#X connect 7 0 8 0;
#X connect 8 0 16 0;
#X connect 9 0 10 0;
#X connect 10 0 17 0;
#X connect 11 0 12 0;
#X connect 12 0 18 0;
#X connect 13 0 1 0;
#X connect 13 1 3 0;
#X connect 14 0 26 0;
#X connect 15 0 5 0;
#X connect 15 1 7 0;
#X connect 15 2 9 0;
#X connect 15 3 11 0;
#X connect 16 0 24 0;
#X connect 17 0 22 0;
#X connect 18 0 19 0;
#X connect 19 0 20 0;
#X connect 19 1 20 1;
#X connect 20 0 21 0;
#X connect 21 0 13 2;
#X connect 22 0 23 0;
#X connect 22 1 23 1;
#X connect 23 0 21 0;
#X connect 24 0 25 0;
#X connect 24 1 25 1;
#X connect 25 0 21 0;
#X connect 26 0 27 0;
#X connect 26 1 27 1;
#X connect 27 0 21 0;
