#N canvas 0 25 1272 692 10;
#X obj 372 115 inlet;
#X obj 168 110 inlet~;
#X obj 253 107 inlet~;
#X obj 198 500 outlet~;
#X obj 305 498 outlet~;
#X msg 367 261 /frequency \$1;
#X obj 371 213 random 200;
#X obj 207 426 mtl/ssb~ /id ssb;
#X obj 361 291 t b a;
#X obj 332 364 route list;
#X obj 344 322 sssad/sssad ssb-frequency;
#X connect 0 0 6 0;
#X connect 1 0 7 0;
#X connect 2 0 7 1;
#X connect 5 0 8 0;
#X connect 6 0 5 0;
#X connect 7 0 3 0;
#X connect 7 1 4 0;
#X connect 8 0 10 0;
#X connect 8 1 10 1;
#X connect 9 0 7 2;
#X connect 10 0 9 0;
