#N canvas 0 25 1272 692 10;
#X obj 926 75 inlet;
#X obj 393 205 random 100;
#X obj 402 233 / 100;
#X obj 168 110 inlet~;
#X obj 253 107 inlet~;
#X obj 272 565 outlet~;
#X obj 379 563 outlet~;
#X obj 467 234 / 100;
#X obj 274 440 mtl/distoChebychev~ /id distoChebychev;
#X obj 926 122 t b b b b b b b b b b b b;
#X msg 393 264 /amp0 \$1;
#X msg 464 262 /amp1 \$1;
#X obj 468 206 random 100;
#X obj 542 233 / 100;
#X obj 543 205 random 100;
#X obj 614 233 / 100;
#X obj 615 205 random 100;
#X obj 688 234 / 100;
#X obj 689 206 random 100;
#X obj 761 233 / 100;
#X obj 762 205 random 100;
#X obj 832 232 / 100;
#X obj 833 204 random 100;
#X obj 905 232 / 100;
#X obj 906 204 random 100;
#X obj 978 229 / 100;
#X obj 979 201 random 100;
#X obj 1049 227 / 100;
#X obj 1050 199 random 100;
#X obj 1122 227 / 100;
#X obj 1123 199 random 100;
#X obj 1195 224 / 100;
#X obj 1196 196 random 100;
#X msg 539 261 /amp2 \$1;
#X msg 611 261 /amp3 \$1;
#X msg 685 262 /amp4 \$1;
#X msg 758 261 /amp5 \$1;
#X msg 829 260 /amp6 \$1;
#X msg 902 260 /amp7 \$1;
#X msg 975 257 /amp8 \$1;
#X msg 1046 255 /amp9 \$1;
#X msg 1119 255 /amp10 \$1;
#X msg 1192 252 /amp11 \$1;
#X connect 0 0 9 0;
#X connect 1 0 2 0;
#X connect 2 0 10 0;
#X connect 3 0 8 0;
#X connect 4 0 8 1;
#X connect 7 0 11 0;
#X connect 8 0 5 0;
#X connect 8 1 6 0;
#X connect 9 0 1 0;
#X connect 9 1 12 0;
#X connect 9 2 14 0;
#X connect 9 3 16 0;
#X connect 9 4 18 0;
#X connect 9 5 20 0;
#X connect 9 6 22 0;
#X connect 9 7 24 0;
#X connect 9 8 26 0;
#X connect 9 9 28 0;
#X connect 9 10 30 0;
#X connect 9 11 32 0;
#X connect 10 0 8 2;
#X connect 11 0 8 2;
#X connect 12 0 7 0;
#X connect 13 0 33 0;
#X connect 14 0 13 0;
#X connect 15 0 34 0;
#X connect 16 0 15 0;
#X connect 17 0 35 0;
#X connect 18 0 17 0;
#X connect 19 0 36 0;
#X connect 20 0 19 0;
#X connect 21 0 37 0;
#X connect 22 0 21 0;
#X connect 23 0 38 0;
#X connect 24 0 23 0;
#X connect 25 0 39 0;
#X connect 26 0 25 0;
#X connect 27 0 40 0;
#X connect 28 0 27 0;
#X connect 29 0 41 0;
#X connect 30 0 29 0;
#X connect 31 0 42 0;
#X connect 32 0 31 0;
#X connect 33 0 8 2;
#X connect 34 0 8 2;
#X connect 35 0 8 2;
#X connect 36 0 8 2;
#X connect 37 0 8 2;
#X connect 38 0 8 2;
#X connect 39 0 8 2;
#X connect 40 0 8 2;
#X connect 41 0 8 2;
#X connect 42 0 8 2;
