#N canvas 0 25 1272 692 10;
#X obj 439 91 inlet;
#X obj 393 205 random 100;
#X obj 402 233 / 100;
#X msg 393 264 /wet \$1;
#X obj 168 110 inlet~;
#X obj 253 107 inlet~;
#X obj 198 500 outlet~;
#X obj 305 498 outlet~;
#X obj 201 450 mtl/oversat~ /id oversat;
#X obj 443 143 t b b;
#X obj 595 220 + 0.5;
#X obj 586 192 random 10;
#X msg 586 251 /oversat \$1;
#X obj 581 282 t b a;
#X obj 579 310 sssad/sssad oversat-oversat;
#X obj 504 360 route list;
#X obj 374 292 t b a;
#X obj 372 320 sssad/sssad oversat-wet;
#X connect 0 0 9 0;
#X connect 1 0 2 0;
#X connect 2 0 3 0;
#X connect 3 0 16 0;
#X connect 4 0 8 0;
#X connect 5 0 8 1;
#X connect 8 0 6 0;
#X connect 8 1 7 0;
#X connect 9 0 1 0;
#X connect 9 1 11 0;
#X connect 10 0 12 0;
#X connect 11 0 10 0;
#X connect 12 0 13 0;
#X connect 13 0 14 0;
#X connect 13 1 14 1;
#X connect 14 0 15 0;
#X connect 15 0 8 2;
#X connect 16 0 17 0;
#X connect 16 1 17 1;
#X connect 17 0 15 0;
