#N canvas 0 25 1272 692 10;
#X obj 394 72 inlet;
#X obj 40 109 inlet~;
#X obj 108 565 outlet~;
#X obj 255 565 outlet~;
#X obj 124 110 inlet~;
#X obj 323 259 random 100;
#X obj 324 283 / 100;
#X msg 325 310 /wet \$1;
#X obj 122 502 mtl/pitchshift2~ /id pitchshift2;
#X obj 583 223 random 24;
#X obj 578 252 - 12;
#X obj 394 119 t b b;
#X msg 567 275 /pitch \$1;
#X obj 577 311 t b a;
#X obj 574 339 sssad/sssad pitchshift2-pitch;
#X obj 507 416 route list;
#X obj 320 348 t b a;
#X obj 317 376 sssad/sssad pitchshift2-wet;
#X connect 0 0 11 0;
#X connect 1 0 8 0;
#X connect 4 0 8 1;
#X connect 5 0 6 0;
#X connect 6 0 7 0;
#X connect 7 0 16 0;
#X connect 8 0 2 0;
#X connect 8 1 3 0;
#X connect 9 0 10 0;
#X connect 10 0 12 0;
#X connect 11 0 5 0;
#X connect 11 1 9 0;
#X connect 12 0 13 0;
#X connect 13 0 14 0;
#X connect 13 1 14 1;
#X connect 14 0 15 0;
#X connect 15 0 8 2;
#X connect 16 0 17 0;
#X connect 16 1 17 1;
#X connect 17 0 15 0;
