#N canvas 0 25 1272 692 10;
#X obj 538 18 inlet;
#X obj 168 110 inlet~;
#X obj 253 107 inlet~;
#X obj 476 605 outlet~;
#X obj 583 603 outlet~;
#X obj 494 566 mtl/eq~ /id eq;
#X obj 538 65 t b b b b b b b;
#X msg 504 211 /hfreq \$1;
#X msg 638 298 /lfreq \$1;
#X msg 736 277 /low \$1;
#X msg 826 235 /mid \$1;
#X msg 916 197 /high \$1;
#X msg 1004 166 /release \$1;
#X msg 1100 136 /switch \$1;
#X obj 501 163 random 13200;
#X obj 504 188 + 880;
#X obj 640 242 random 23;
#X obj 640 269 + 420;
#X obj 826 183 random 80;
#X obj 738 227 random 80;
#X obj 918 148 random 80;
#X obj 738 252 - 40;
#X obj 831 208 - 40;
#X obj 918 173 - 40;
#X obj 1006 141 random 5000;
#X obj 1101 111 random 1;
#X obj 1103 162 t b a;
#X obj 1087 188 sssad/sssad eq-switch;
#X obj 715 460 route list;
#X obj 1005 190 t b a;
#X obj 989 216 sssad/sssad eq-release;
#X obj 920 222 t b a;
#X obj 904 248 sssad/sssad eq-high;
#X obj 824 265 t b a;
#X obj 824 292 sssad/sssad eq-mid;
#X obj 738 299 t b a;
#X obj 735 324 sssad/sssad eq-low;
#X obj 640 329 t b a;
#X obj 639 360 sssad/sssad eq-lfreq;
#X obj 503 245 t b a;
#X obj 487 271 sssad/sssad eq-hfreq;
#X connect 0 0 6 0;
#X connect 1 0 5 0;
#X connect 2 0 5 1;
#X connect 5 0 3 0;
#X connect 5 1 4 0;
#X connect 6 0 14 0;
#X connect 6 1 16 0;
#X connect 6 2 19 0;
#X connect 6 3 18 0;
#X connect 6 4 20 0;
#X connect 6 5 24 0;
#X connect 6 6 25 0;
#X connect 7 0 39 0;
#X connect 8 0 37 0;
#X connect 9 0 35 0;
#X connect 10 0 33 0;
#X connect 11 0 31 0;
#X connect 12 0 29 0;
#X connect 13 0 26 0;
#X connect 14 0 15 0;
#X connect 15 0 7 0;
#X connect 16 0 17 0;
#X connect 17 0 8 0;
#X connect 18 0 22 0;
#X connect 19 0 21 0;
#X connect 20 0 23 0;
#X connect 21 0 9 0;
#X connect 22 0 10 0;
#X connect 23 0 11 0;
#X connect 24 0 12 0;
#X connect 25 0 13 0;
#X connect 26 0 27 0;
#X connect 26 1 27 1;
#X connect 27 0 28 0;
#X connect 28 0 5 2;
#X connect 29 0 30 0;
#X connect 29 1 30 1;
#X connect 30 0 28 0;
#X connect 31 0 32 0;
#X connect 31 1 32 1;
#X connect 32 0 28 0;
#X connect 33 0 34 0;
#X connect 33 1 34 1;
#X connect 34 0 28 0;
#X connect 35 0 36 0;
#X connect 35 1 36 1;
#X connect 36 0 28 0;
#X connect 37 0 38 0;
#X connect 37 1 38 1;
#X connect 38 0 28 0;
#X connect 39 0 40 0;
#X connect 39 1 40 1;
#X connect 40 0 28 0;
