#N canvas 0 25 1272 692 10;
#X obj 84 114 inlet~;
#X obj 114 504 outlet~;
#X obj 138 110 inlet~;
#X obj 168 500 outlet~;
#X obj 283 110 inlet;
#X obj 253 210 random 100;
#X obj 253 238 / 100;
#X obj 495 233 random 100;
#X obj 495 261 / 100;
#X obj 749 216 random 100;
#X obj 749 244 / 100;
#X obj 958 210 random 100;
#X obj 958 238 / 100;
#X obj 298 162 t b b b b;
#X obj 70 460 mtl/wave-shaper~ /id wave-shaper;
#X msg 239 272 /wet \$1;
#X msg 492 287 /amount \$1;
#X msg 747 278 /depth \$1;
#X msg 957 272 /limit \$1;
#X obj 963 300 t b a;
#X obj 919 326 sssad/sssad waveshaper-limit;
#X obj 534 421 route list;
#X obj 748 307 t b a;
#X obj 704 333 sssad/sssad waveshaper-depth;
#X obj 495 312 t b a;
#X obj 475 343 sssad/sssad waveshaper-amount;
#X obj 268 313 t b a;
#X obj 248 344 sssad/sssad waveshaper-wet;
#X connect 0 0 14 0;
#X connect 2 0 14 1;
#X connect 4 0 13 0;
#X connect 5 0 6 0;
#X connect 6 0 15 0;
#X connect 7 0 8 0;
#X connect 8 0 16 0;
#X connect 9 0 10 0;
#X connect 10 0 17 0;
#X connect 11 0 12 0;
#X connect 12 0 18 0;
#X connect 13 0 5 0;
#X connect 13 1 7 0;
#X connect 13 2 9 0;
#X connect 13 3 11 0;
#X connect 14 0 1 0;
#X connect 14 1 3 0;
#X connect 15 0 26 0;
#X connect 16 0 24 0;
#X connect 17 0 22 0;
#X connect 18 0 19 0;
#X connect 19 0 20 0;
#X connect 19 1 20 1;
#X connect 20 0 21 0;
#X connect 21 0 14 2;
#X connect 22 0 23 0;
#X connect 22 1 23 1;
#X connect 23 0 21 0;
#X connect 24 0 25 0;
#X connect 24 1 25 1;
#X connect 25 0 21 0;
#X connect 26 0 27 0;
#X connect 26 1 27 1;
#X connect 27 0 21 0;
