#N canvas 0 25 1272 692 10;
#X obj 632 39 inlet;
#X obj 343 197 random 100;
#X obj 352 225 / 100;
#X msg 343 256 /wet \$1;
#X obj 168 110 inlet~;
#X obj 253 107 inlet~;
#X obj 198 500 outlet~;
#X obj 305 498 outlet~;
#X obj 742 172 random 100;
#X obj 566 182 random 100;
#X obj 200 437 mtl/flanger2~ /id flanger2;
#X obj 563 213 / 10;
#X msg 556 234 /depth \$1;
#X obj 744 198 / 100;
#X msg 734 228 /frequency \$1;
#X obj 632 86 t b b b;
#X obj 730 259 t b a;
#X obj 728 287 sssad/sssad flanger2-frequency;
#X obj 647 351 route list;
#X obj 560 257 t b a;
#X obj 558 285 sssad/sssad flanger2-depth;
#X obj 348 289 t b a;
#X obj 346 317 sssad/sssad flanger2-wet;
#X connect 0 0 15 0;
#X connect 1 0 2 0;
#X connect 2 0 3 0;
#X connect 3 0 21 0;
#X connect 4 0 10 0;
#X connect 5 0 10 1;
#X connect 8 0 13 0;
#X connect 9 0 11 0;
#X connect 10 0 6 0;
#X connect 10 1 7 0;
#X connect 11 0 12 0;
#X connect 12 0 19 0;
#X connect 13 0 14 0;
#X connect 14 0 16 0;
#X connect 15 0 1 0;
#X connect 15 1 9 0;
#X connect 15 2 8 0;
#X connect 16 0 17 0;
#X connect 16 1 17 1;
#X connect 17 0 18 0;
#X connect 18 0 10 2;
#X connect 19 0 20 0;
#X connect 19 1 20 1;
#X connect 20 0 18 0;
#X connect 21 0 22 0;
#X connect 21 1 22 1;
#X connect 22 0 18 0;
