#N canvas 0 25 1272 692 10;
#X obj 278 120 inlet;
#X obj 168 110 inlet~;
#X obj 198 500 outlet~;
#X obj 84 114 inlet~;
#X obj 114 504 outlet~;
#X obj 262 207 random 100;
#X obj 262 236 / 100;
#X obj 493 244 random 11;
#X obj 281 151 t b b b;
#X msg 488 270 FFTSize \$1;
#X msg 705 251 FFToverlap \$1;
#X obj 698 203 random 4;
#X obj 99 455 mtl/FFTExpander~ /id FFTExpander;
#X msg 262 263 squelch \$1;
#X obj 256 288 t b a;
#X obj 240 314 sssad/sssad FFTExpander-squelch;
#X obj 515 418 route list;
#X obj 489 296 t b a;
#X obj 473 322 sssad/sssad FFTExpander-FFTSize;
#X obj 690 293 t b a;
#X obj 674 319 sssad/sssad FFTExpander-FFToverlap;
#X connect 0 0 8 0;
#X connect 1 0 12 1;
#X connect 3 0 12 0;
#X connect 5 0 6 0;
#X connect 6 0 13 0;
#X connect 7 0 9 0;
#X connect 8 0 5 0;
#X connect 8 1 7 0;
#X connect 8 2 11 0;
#X connect 9 0 17 0;
#X connect 10 0 19 0;
#X connect 11 0 10 0;
#X connect 12 0 4 0;
#X connect 12 1 2 0;
#X connect 13 0 14 0;
#X connect 14 0 15 0;
#X connect 14 1 15 1;
#X connect 15 0 16 0;
#X connect 16 0 12 2;
#X connect 17 0 18 0;
#X connect 17 1 18 1;
#X connect 18 0 16 0;
#X connect 19 0 20 0;
#X connect 19 1 20 1;
#X connect 20 0 16 0;
