#N canvas 0 25 1272 692 10;
#X obj 482 100 inlet;
#X obj 168 110 inlet~;
#X obj 253 107 inlet~;
#X obj 198 500 outlet~;
#X obj 305 498 outlet~;
#X obj 370 213 random 100;
#X msg 357 270 /wet \$1;
#X obj 369 241 / 100;
#X obj 201 451 mtl/reverbFdn~ /id reverbFdn;
#X msg 510 245 /damp \$1;
#X msg 650 236 /liveness \$1;
#X msg 830 236 /crossover \$1;
#X obj 479 140 t b b b b;
#X obj 510 219 random 100;
#X obj 660 207 random 100;
#X obj 829 209 random 127;
#X obj 831 263 t b a;
#X obj 834 294 sssad/sssad fdn-crossover;
#X obj 708 371 route list;
#X obj 651 265 t b a;
#X obj 514 269 t b a;
#X obj 654 297 sssad/sssad fdn-liveness;
#X obj 517 300 sssad/sssad fdn-damp;
#X obj 377 305 t b a;
#X obj 380 336 sssad/sssad fdn-damp;
#X connect 0 0 12 0;
#X connect 1 0 8 0;
#X connect 2 0 8 1;
#X connect 5 0 7 0;
#X connect 6 0 23 0;
#X connect 7 0 6 0;
#X connect 8 0 3 0;
#X connect 8 1 4 0;
#X connect 9 0 20 0;
#X connect 10 0 19 0;
#X connect 11 0 16 0;
#X connect 12 0 5 0;
#X connect 12 1 13 0;
#X connect 12 2 14 0;
#X connect 12 3 15 0;
#X connect 13 0 9 0;
#X connect 14 0 10 0;
#X connect 15 0 11 0;
#X connect 16 0 17 0;
#X connect 16 1 17 1;
#X connect 17 0 18 0;
#X connect 18 0 8 2;
#X connect 19 0 21 0;
#X connect 19 1 21 1;
#X connect 20 0 22 0;
#X connect 20 1 22 1;
#X connect 21 0 18 0;
#X connect 22 0 18 0;
#X connect 23 0 24 0;
#X connect 23 1 24 1;
#X connect 24 0 18 0;
