#N canvas 1 84 1358 659 10;
#X obj 100 261 line~;
#X obj 23 240 noise~;
#X obj 23 261 lop~ 12000;
#X obj 23 283 *~;
#X msg 100 242 1 \, 0 100;
#X obj 402 62 loadbang;
#X text 324 186 Right outlet outputs the current pattern on every modification
;
#X msg 313 285 0 1 1 1 1 0 0 0;
#X obj 24 339 mtl/out~;
#X text 416 96 Right inlet sets pattern;
#X floatatom 14 166 5 0 0 0 - - -;
#X obj 312 259 cyclone/prepend set;
#X text 15 23 tags: sequencing;
#X obj 436 17 mtl/clkMaster 120;
#X obj 14 92 loadbang;
#X obj 15 114 tgl 15 0 empty empty empty 17 7 0 10 -262144 -1 -1 1
1;
#X obj 13 136 mtl/clkSlave 2 8;
#X msg 402 118 1 0 1 1 1 1 1 1;
#X obj 196 73 bng 15 250 50 0 empty empty empty 17 7 0 10 -262144 -1
-1;
#X text 13 10 Description: Pseudo Random Pattern Generator.;
#X obj 14 186 mtl/seq1x16;
#X obj 188 129 ptl/random-seq1x16;
#X connect 0 0 3 1;
#X connect 1 0 2 0;
#X connect 2 0 3 0;
#X connect 3 0 8 0;
#X connect 4 0 0 0;
#X connect 5 0 17 0;
#X connect 10 0 20 0;
#X connect 11 0 7 0;
#X connect 14 0 15 0;
#X connect 15 0 16 0;
#X connect 16 0 10 0;
#X connect 18 0 21 0;
#X connect 20 0 4 0;
#X connect 20 1 11 0;
#X connect 21 0 20 1;
