#N canvas 0 25 1272 692 10;
#X obj 583 78 inlet;
#X obj 446 152 random 100;
#X obj 455 180 / 100;
#X obj 168 110 inlet~;
#X obj 253 107 inlet~;
#X obj 198 500 outlet~;
#X obj 305 498 outlet~;
#X obj 587 179 random 100;
#X obj 199 375 mtl/hacheur~ /id hacheur;
#X obj 583 125 t b b;
#X msg 581 209 /duty_cycle \$1;
#X msg 444 210 /frequency \$1;
#X obj 577 233 t b a;
#X obj 561 259 sssad/sssad hacheur-duty_cycle;
#X obj 535 311 route list;
#X obj 362 241 t b a;
#X obj 360 272 sssad/sssad hacheur-frequency;
#X connect 0 0 9 0;
#X connect 1 0 2 0;
#X connect 2 0 11 0;
#X connect 3 0 8 0;
#X connect 4 0 8 1;
#X connect 7 0 10 0;
#X connect 8 0 5 0;
#X connect 8 1 6 0;
#X connect 9 0 1 0;
#X connect 9 1 7 0;
#X connect 10 0 12 0;
#X connect 11 0 15 0;
#X connect 12 0 13 0;
#X connect 12 1 13 1;
#X connect 13 0 14 0;
#X connect 14 0 8 2;
#X connect 15 0 16 0;
#X connect 15 1 16 1;
#X connect 16 0 14 0;
