#N canvas 0 25 1272 692 10;
#X obj 369 86 inlet;
#X obj 168 110 inlet~;
#X obj 251 512 outlet~;
#X obj 369 133 t b b b b;
#X obj 84 114 inlet~;
#X obj 114 504 outlet~;
#X obj 321 200 random 1;
#X obj 392 201 random 1;
#X obj 114 440 foldover~;
#X obj 251 456 foldover~;
#X obj 332 275 t b a;
#X obj 316 301 sssad/sssad foldover1;
#X obj 483 279 t b a;
#X obj 467 305 sssad/sssad foldover2;
#X connect 0 0 3 0;
#X connect 1 0 9 0;
#X connect 3 0 6 0;
#X connect 3 1 7 0;
#X connect 4 0 8 0;
#X connect 6 0 10 0;
#X connect 7 0 12 0;
#X connect 8 0 5 0;
#X connect 9 0 2 0;
#X connect 10 0 11 0;
#X connect 10 1 11 1;
#X connect 11 0 8 1;
#X connect 11 0 9 1;
#X connect 12 0 13 0;
#X connect 12 1 13 1;
#X connect 13 0 8 2;
#X connect 13 0 9 2;
