#N canvas 0 25 1272 692 10;
#X obj 84 114 inlet~;
#X obj 114 504 outlet~;
#X obj 138 110 inlet~;
#X obj 335 530 outlet~;
#X obj 235 194 random 20;
#X obj 235 217 - 10;
#X obj 96 434 transient~;
#X obj 342 424 transient~;
#X obj 234 242 / 10;
#X obj 330 149 t b b;
#X obj 406 199 random 20;
#X obj 406 221 - 10;
#X obj 403 245 / 10;
#X obj 337 96 inlet;
#X obj 255 357 route list;
#X obj 234 268 t b a;
#X obj 192 294 sssad/sssad transient-a;
#X obj 399 271 t b a;
#X obj 357 297 sssad/sssad transient-b;
#X connect 0 0 6 0;
#X connect 2 0 7 0;
#X connect 4 0 5 0;
#X connect 5 0 8 0;
#X connect 6 0 1 0;
#X connect 7 0 3 0;
#X connect 8 0 15 0;
#X connect 9 0 4 0;
#X connect 9 1 10 0;
#X connect 10 0 11 0;
#X connect 11 0 12 0;
#X connect 12 0 17 0;
#X connect 13 0 9 0;
#X connect 14 0 6 1;
#X connect 14 0 7 1;
#X connect 15 0 16 0;
#X connect 15 1 16 1;
#X connect 16 0 14 0;
#X connect 17 0 18 0;
#X connect 17 1 18 1;
#X connect 18 0 14 0;
