#N canvas 0 25 1272 692 10;
#X obj 436 118 bng 15 250 50 0 empty empty empty 17 7 0 10 -262144
-1 -1;
#X obj 155 278 mtl/out~;
#X obj 173 109 tgl 15 0 empty empty empty 17 7 0 10 -262144 -1 -1 0
1;
#N canvas 5 185 450 300 generate~ 0;
#X obj 32 213 osc~ 200;
#X obj 32 89 metro 400;
#X obj 32 175 mtof;
#X obj 104 195 mtof;
#X obj 32 132 + 20;
#X obj 32 111 random 70;
#X floatatom 83 69 5 0 0 0 - - -;
#X obj 32 261 outlet~;
#X obj 103 261 outlet~;
#X obj 30 14 inlet;
#X obj 104 175 mtl/closestNote 0 2 4 7 9;
#X obj 104 234 *~;
#X obj 31 234 *~;
#X obj 104 214 osc~ 100;
#X obj 32 155 mtl/closestNote 0 2 4 7 9;
#X connect 0 0 12 0;
#X connect 1 0 5 0;
#X connect 2 0 0 0;
#X connect 3 0 13 0;
#X connect 4 0 10 0;
#X connect 4 0 14 0;
#X connect 5 0 4 0;
#X connect 6 0 1 1;
#X connect 9 0 1 0;
#X connect 9 0 11 1;
#X connect 9 0 12 1;
#X connect 10 0 3 0;
#X connect 11 0 8 0;
#X connect 12 0 7 0;
#X connect 13 0 11 0;
#X connect 14 0 2 0;
#X restore 173 134 pd generate~;
#X text 660 157 Author: JKP;
#X text 661 178 tags: random fx;
#X obj 157 200 ptl/random-amTremolo~ /id random-amTremolo;
#X text 661 136 Description: Random amTremolo;
#N canvas 0 0 1280 717 state-saving 0;
#X obj 13 315 cnv 15 400 300 empty empty Restore 300 12 0 14 -233017
-123526 0;
#X obj 13 12 cnv 15 400 300 empty empty Save 300 12 0 14 -233017 -123526
0;
#X obj 239 237 textfile;
#X msg 128 138 clear;
#X msg 313 220 print;
#X obj 239 161 list prepend add;
#X obj 239 187 list trim;
#X obj 86 520 textfile;
#X obj 86 550 s SSSAD;
#X obj 86 462 until;
#X msg 86 441 100;
#X msg 30 503 print;
#X text 81 572 also received inside sssad;
#X obj 106 238 s SSSAD_ADMIN;
#X obj 239 93 r SSSAD_ADMIN;
#X obj 239 137 route persist;
#X obj 239 115 list trim;
#X msg 106 172 save;
#X msg 120 211 set;
#X obj 154 547 s SSSAD_ADMIN;
#X msg 154 522 set;
#X obj 84 59 savepanel;
#X obj 84 102 t a b b;
#X msg 84 285 write \$1;
#X obj 505 113 bng 24 250 50 0 empty empty save 0 -6 0 8 -262144 -1
-1;
#X obj 86 418 t b a;
#X msg 133 463 read \$1 \, rewind;
#X obj 537 115 bng 24 250 50 0 empty empty load 0 -6 0 8 -262144 -1
-1;
#X obj 86 365 openpanel;
#X text 118 441 Avoid loops. A bang normally also works.;
#X obj 84 81 symbol;
#X msg 27 63 bang;
#X text 25 43 again;
#X obj 86 395 symbol;
#X msg 29 378 bang;
#X text 27 358 again;
#X text 40 597 Hint: get creative with the [OSCroute] external!;
#X obj 593 479 cnv 15 100 60 empty empty empty 20 12 0 14 -233017 -66577
0;
#X connect 3 0 2 0;
#X connect 4 0 2 0;
#X connect 5 0 6 0;
#X connect 6 0 2 0;
#X connect 7 0 8 0;
#X connect 7 1 9 1;
#X connect 7 1 20 0;
#X connect 9 0 7 0;
#X connect 10 0 9 0;
#X connect 11 0 7 0;
#X connect 14 0 16 0;
#X connect 15 0 5 0;
#X connect 16 0 15 0;
#X connect 17 0 13 0;
#X connect 18 0 13 0;
#X connect 20 0 19 0;
#X connect 21 0 30 0;
#X connect 22 0 23 0;
#X connect 22 1 17 0;
#X connect 22 2 3 0;
#X connect 23 0 2 0;
#X connect 24 0 21 0;
#X connect 25 0 10 0;
#X connect 25 1 26 0;
#X connect 26 0 7 0;
#X connect 27 0 28 0;
#X connect 28 0 33 0;
#X connect 30 0 22 0;
#X connect 31 0 30 0;
#X connect 33 0 25 0;
#X connect 34 0 33 0;
#X coords 0 -1 1 1 85 60 2 500 100;
#X restore 661 266 pd state-saving;
#X text 677 331 module sssad de sauvegarde;
#X connect 0 0 6 2;
#X connect 2 0 3 0;
#X connect 3 0 6 0;
#X connect 3 1 6 1;
#X connect 6 0 1 0;
#X connect 6 1 1 1;
