#N canvas 0 25 1272 692 10;
#X obj 529 93 inlet;
#X obj 449 211 random 100;
#X obj 458 239 / 100;
#X msg 449 270 /wet \$1;
#X obj 168 110 inlet~;
#X obj 253 107 inlet~;
#X obj 274 549 outlet~;
#X obj 381 547 outlet~;
#X obj 652 216 / 100;
#X obj 802 186 random 100;
#X obj 811 214 / 100;
#X obj 653 188 random 100;
#X obj 266 505 mtl/distoLofi~ /id distoLofi;
#X obj 526 133 t b b b;
#X msg 651 245 /freq \$1;
#X msg 794 247 /bits \$1;
#X obj 792 280 t b a;
#X obj 786 311 sssad/sssad lofi-bits;
#X obj 688 381 route list;
#X obj 650 286 t b a;
#X obj 644 317 sssad/sssad lofi-freq;
#X obj 448 301 t b a;
#X obj 442 332 sssad/sssad lofi-wet;
#X connect 0 0 13 0;
#X connect 1 0 2 0;
#X connect 2 0 3 0;
#X connect 3 0 21 0;
#X connect 4 0 12 0;
#X connect 5 0 12 1;
#X connect 8 0 14 0;
#X connect 9 0 10 0;
#X connect 10 0 15 0;
#X connect 11 0 8 0;
#X connect 12 0 6 0;
#X connect 12 1 7 0;
#X connect 13 0 1 0;
#X connect 13 1 11 0;
#X connect 13 2 9 0;
#X connect 14 0 19 0;
#X connect 15 0 16 0;
#X connect 16 0 17 0;
#X connect 16 1 17 1;
#X connect 17 0 18 0;
#X connect 18 0 12 2;
#X connect 19 0 20 0;
#X connect 19 1 20 1;
#X connect 20 0 18 0;
#X connect 21 0 22 0;
#X connect 21 1 22 1;
#X connect 22 0 18 0;
