#N canvas 1 82 1364 661 10;
#X obj 393 142 inlet;
#X obj 75 263 random 129;
#X obj 141 264 random 129;
#X obj 207 264 random 129;
#X obj 273 265 random 129;
#X obj 339 267 random 129;
#X obj 406 269 random 129;
#X obj 475 267 random 129;
#X obj 543 267 random 129;
#X obj 603 420 outlet;
#X obj 552 216 t b b b b b b b b b b b b b b b b;
#X obj 520 338 pack f f f f f f f f f f f f f f f f;
#X obj 621 267 random 129;
#X obj 687 268 random 129;
#X obj 753 268 random 129;
#X obj 819 269 random 129;
#X obj 885 271 random 129;
#X obj 952 273 random 129;
#X obj 1021 271 random 129;
#X obj 1089 271 random 129;
#X connect 0 0 10 0;
#X connect 1 0 11 0;
#X connect 2 0 11 1;
#X connect 3 0 11 2;
#X connect 4 0 11 3;
#X connect 5 0 11 4;
#X connect 6 0 11 5;
#X connect 7 0 11 6;
#X connect 8 0 11 7;
#X connect 10 0 1 0;
#X connect 10 1 2 0;
#X connect 10 2 3 0;
#X connect 10 3 4 0;
#X connect 10 4 5 0;
#X connect 10 5 6 0;
#X connect 10 6 7 0;
#X connect 10 7 8 0;
#X connect 10 8 12 0;
#X connect 10 9 13 0;
#X connect 10 10 14 0;
#X connect 10 11 15 0;
#X connect 10 12 16 0;
#X connect 10 13 17 0;
#X connect 10 14 18 0;
#X connect 10 15 19 0;
#X connect 11 0 9 0;
#X connect 12 0 11 8;
#X connect 13 0 11 9;
#X connect 14 0 11 10;
#X connect 15 0 11 11;
#X connect 16 0 11 12;
#X connect 17 0 11 13;
#X connect 18 0 11 14;
#X connect 19 0 11 15;
