#N canvas 0 25 1272 692 10;
#X obj 394 72 inlet;
#X obj 40 109 inlet~;
#X obj 110 476 outlet~;
#X obj 257 476 outlet~;
#X obj 394 119 t b b b b;
#X obj 124 110 inlet~;
#X obj 122 413 mtl/scompress~ /id scompress;
#X msg 258 222 /attack \$1;
#X obj 255 198 random 3000;
#X msg 430 230 /release \$1;
#X obj 434 202 random 3000;
#X msg 618 253 /ratio \$1;
#X obj 622 218 random 10;
#X msg 852 256 /thresh \$1;
#X obj 854 229 random 120;
#X obj 854 281 t b a;
#X obj 817 313 sssad/sssad scompress-thresh;
#X obj 558 364 route list;
#X obj 623 282 t b a;
#X obj 578 315 sssad/sssad scompress-ratio;
#X obj 427 252 t b a;
#X obj 408 282 sssad/sssad scompress-release;
#X obj 245 270 t b a;
#X obj 226 300 sssad/sssad scompress-attack;
#X connect 0 0 4 0;
#X connect 1 0 6 0;
#X connect 1 0 6 2;
#X connect 4 0 8 0;
#X connect 4 1 10 0;
#X connect 4 2 12 0;
#X connect 4 3 14 0;
#X connect 5 0 6 1;
#X connect 6 0 2 0;
#X connect 6 1 3 0;
#X connect 7 0 22 0;
#X connect 8 0 7 0;
#X connect 9 0 20 0;
#X connect 10 0 9 0;
#X connect 11 0 18 0;
#X connect 12 0 11 0;
#X connect 13 0 15 0;
#X connect 14 0 13 0;
#X connect 15 0 16 0;
#X connect 15 1 16 1;
#X connect 16 0 17 0;
#X connect 17 0 6 3;
#X connect 18 0 19 0;
#X connect 18 1 19 1;
#X connect 19 0 17 0;
#X connect 20 0 21 0;
#X connect 20 1 21 1;
#X connect 21 0 17 0;
#X connect 22 0 23 0;
#X connect 22 1 23 1;
#X connect 23 0 17 0;
