#N canvas 0 25 1272 692 10;
#X obj 84 114 inlet~;
#X obj 114 504 outlet~;
#X obj 138 110 inlet~;
#X obj 168 500 outlet~;
#X obj 253 109 inlet;
#X obj 84 374 zhzxh~;
#X obj 167 375 zhzxh~;
#X obj 273 180 random 2000;
#X obj 277 230 t b a;
#X obj 235 256 sssad/sssad zhzxh;
#X connect 0 0 5 0;
#X connect 2 0 6 0;
#X connect 4 0 7 0;
#X connect 5 0 1 0;
#X connect 6 0 3 0;
#X connect 7 0 8 0;
#X connect 8 0 9 0;
#X connect 8 1 9 1;
#X connect 9 0 5 1;
#X connect 9 0 6 1;
