#N canvas 0 25 1272 692 10;
#X obj 583 78 inlet;
#X obj 393 205 random 100;
#X obj 402 233 / 100;
#X msg 393 264 /wet \$1;
#X obj 168 110 inlet~;
#X obj 253 107 inlet~;
#X obj 198 500 outlet~;
#X obj 305 498 outlet~;
#X obj 464 206 random 50;
#X msg 456 271 /rate \$1;
#X obj 653 206 random 100;
#X obj 629 252 / 100;
#X obj 583 125 t b b b b;
#X obj 564 197 random 100;
#X obj 540 243 / 100;
#X msg 538 281 /feedback \$1;
#X msg 627 290 /depth \$1;
#X obj 199 375 mtl/chorus~ /id chorus;
#X connect 0 0 12 0;
#X connect 1 0 2 0;
#X connect 2 0 3 0;
#X connect 3 0 17 2;
#X connect 4 0 17 0;
#X connect 5 0 17 1;
#X connect 8 0 9 0;
#X connect 9 0 17 2;
#X connect 10 0 11 0;
#X connect 11 0 16 0;
#X connect 12 0 1 0;
#X connect 12 1 8 0;
#X connect 12 2 13 0;
#X connect 12 3 10 0;
#X connect 13 0 14 0;
#X connect 14 0 15 0;
#X connect 15 0 17 2;
#X connect 16 0 17 2;
#X connect 17 0 6 0;
#X connect 17 1 7 0;
