#N canvas 0 25 1272 692 10;
#X obj 583 78 inlet;
#X obj 329 191 random 100;
#X obj 338 219 / 100;
#X msg 329 250 /wet \$1;
#X obj 168 110 inlet~;
#X obj 253 107 inlet~;
#X obj 198 500 outlet~;
#X obj 305 498 outlet~;
#X obj 583 125 t b b b b;
#X obj 726 199 random 100;
#X msg 528 232 /frequence \$1;
#X obj 530 204 random 100;
#X msg 721 225 /width \$1;
#X msg 887 226 /feedback \$1;
#X obj 882 203 random 50;
#X obj 223 439 mtl/flanger~ /id flanger;
#X obj 884 249 t b a;
#X obj 882 277 sssad/sssad flanger-feedback;
#X obj 677 363 route list;
#X obj 723 249 t b a;
#X obj 721 277 sssad/sssad flanger-width;
#X obj 526 261 t b a;
#X obj 524 289 sssad/sssad flanger-frequence;
#X obj 329 274 t b a;
#X obj 327 302 sssad/sssad flanger-wet;
#X connect 0 0 8 0;
#X connect 1 0 2 0;
#X connect 2 0 3 0;
#X connect 3 0 23 0;
#X connect 4 0 15 0;
#X connect 5 0 15 1;
#X connect 8 0 1 0;
#X connect 8 1 11 0;
#X connect 8 2 9 0;
#X connect 8 3 14 0;
#X connect 9 0 12 0;
#X connect 10 0 21 0;
#X connect 11 0 10 0;
#X connect 12 0 19 0;
#X connect 13 0 16 0;
#X connect 14 0 13 0;
#X connect 15 0 6 0;
#X connect 15 1 7 0;
#X connect 16 0 17 0;
#X connect 16 1 17 1;
#X connect 17 0 18 0;
#X connect 18 0 15 2;
#X connect 19 0 20 0;
#X connect 19 1 20 1;
#X connect 20 0 18 0;
#X connect 21 0 22 0;
#X connect 21 1 22 1;
#X connect 22 0 18 0;
#X connect 23 0 24 0;
#X connect 23 1 24 1;
#X connect 24 0 18 0;
