#N canvas 0 25 1272 692 10;
#X obj 394 72 inlet;
#X obj 236 216 random 100;
#X obj 245 244 / 100;
#X msg 236 275 /wet \$1;
#X obj 40 109 inlet~;
#X obj 125 106 inlet~;
#X obj 70 499 outlet~;
#X obj 177 497 outlet~;
#X obj 553 146 random 100;
#X obj 458 186 random 100;
#X obj 554 179 / 100;
#X obj 455 217 / 100;
#X msg 544 209 /feedback \$1;
#X msg 443 246 /dampgen \$1;
#X obj 394 119 t b b b;
#X obj 63 457 mtl/purereverb~ /id purereverb;
#X obj 546 236 t b a;
#X obj 545 265 sssad/sssad purereverb-feedback;
#X obj 550 376 route list;
#X obj 441 271 t b a;
#X obj 440 300 sssad/sssad purereverb-dampgen;
#X obj 235 300 t b a;
#X obj 234 329 sssad/sssad purereverb-wet;
#X connect 0 0 14 0;
#X connect 1 0 2 0;
#X connect 2 0 3 0;
#X connect 3 0 21 0;
#X connect 4 0 15 0;
#X connect 5 0 15 1;
#X connect 8 0 10 0;
#X connect 9 0 11 0;
#X connect 10 0 12 0;
#X connect 11 0 13 0;
#X connect 12 0 16 0;
#X connect 13 0 19 0;
#X connect 14 0 1 0;
#X connect 14 1 9 0;
#X connect 14 2 8 0;
#X connect 15 0 6 0;
#X connect 15 1 7 0;
#X connect 16 0 17 0;
#X connect 16 1 17 1;
#X connect 17 0 18 0;
#X connect 18 0 15 2;
#X connect 19 0 20 0;
#X connect 19 1 20 1;
#X connect 20 0 18 0;
#X connect 21 0 22 0;
#X connect 21 1 22 1;
#X connect 22 0 18 0;
