#N canvas 0 25 1272 692 10;
#X obj 673 105 inlet;
#X obj 490 177 random 100;
#X obj 499 205 / 100;
#X obj 120 134 inlet~;
#X obj 255 114 inlet~;
#X obj 270 453 outlet~;
#X obj 394 456 outlet~;
#X obj 851 179 random 100;
#X obj 850 202 / 100;
#X obj 683 177 random 100;
#X obj 689 206 / 100;
#X obj 279 415 mtl/amTremolo~ /id amTremolo;
#X obj 671 135 t b b b b b b;
#X obj 481 255 t b a;
#X msg 684 235 /phase \$1;
#X msg 878 231 /depth \$1;
#X obj 756 399 route list;
#X msg 485 232 /freq \$1;
#X obj 684 267 t b a;
#X obj 892 265 t b a;
#X obj 416 296 sssad/sssad amTremolo-freq;
#X obj 668 293 sssad/sssad amTremolo-phase;
#X obj 876 291 sssad/sssad amTremolo-depth;
#X connect 0 0 12 0;
#X connect 1 0 2 0;
#X connect 2 0 17 0;
#X connect 3 0 11 0;
#X connect 4 0 11 1;
#X connect 7 0 8 0;
#X connect 8 0 15 0;
#X connect 9 0 10 0;
#X connect 10 0 14 0;
#X connect 11 0 5 0;
#X connect 11 1 6 0;
#X connect 12 1 1 0;
#X connect 12 3 9 0;
#X connect 12 5 7 0;
#X connect 13 0 20 0;
#X connect 13 1 20 1;
#X connect 14 0 18 0;
#X connect 15 0 19 0;
#X connect 16 0 11 2;
#X connect 17 0 13 0;
#X connect 18 0 21 0;
#X connect 18 1 21 1;
#X connect 19 0 22 0;
#X connect 19 1 22 1;
#X connect 20 0 16 0;
#X connect 21 0 16 0;
#X connect 22 0 16 0;
