#N canvas 0 25 1272 692 10;
#X obj 278 120 inlet;
#X obj 84 114 inlet~;
#X obj 114 504 outlet~;
#X obj 112 379 round~;
#X obj 138 110 inlet~;
#X obj 168 500 outlet~;
#X obj 166 375 round~;
#X obj 233 232 random 20;
#X obj 248 259 t b a;
#X obj 229 289 sssad/sssad round;
#X connect 0 0 7 0;
#X connect 1 0 3 0;
#X connect 3 0 2 0;
#X connect 4 0 6 0;
#X connect 6 0 5 0;
#X connect 7 0 8 0;
#X connect 8 0 9 0;
#X connect 8 1 9 1;
#X connect 9 0 3 1;
#X connect 9 0 6 1;
