#N canvas 0 25 1272 692 10;
#X obj 583 78 inlet;
#X obj 168 110 inlet~;
#X obj 253 107 inlet~;
#X obj 240 599 outlet~;
#X obj 347 597 outlet~;
#X obj 220 559 mtl/qompander~ /id qompander;
#X obj 357 175 random 8;
#X obj 357 204 + 0.8;
#X msg 357 232 /compander-factor \$1;
#X obj 501 173 random 76;
#X obj 501 201 - 116;
#X msg 499 234 /compander-point \$1;
#X obj 583 125 t b b b b;
#X msg 686 257 /response-time \$1;
#X obj 696 207 random 7;
#X obj 690 233 + 1;
#X msg 916 269 /recovery-time \$1;
#X obj 918 225 random 380;
#X obj 918 246 + 20;
#X obj 908 294 t b a;
#X obj 907 321 sssad/sssad qompander-recovery-time;
#X obj 693 431 route list;
#X obj 684 288 t b a;
#X obj 683 315 sssad/sssad qompander-response-time;
#X obj 489 295 t b a;
#X obj 455 324 sssad/sssad qompander-compander-point;
#X obj 353 352 t b a;
#X obj 319 381 sssad/sssad qompander-compander-factor;
#X connect 0 0 12 0;
#X connect 1 0 5 0;
#X connect 2 0 5 1;
#X connect 5 0 3 0;
#X connect 5 1 4 0;
#X connect 6 0 7 0;
#X connect 7 0 8 0;
#X connect 8 0 26 0;
#X connect 9 0 10 0;
#X connect 10 0 11 0;
#X connect 11 0 24 0;
#X connect 12 0 6 0;
#X connect 12 1 9 0;
#X connect 12 2 14 0;
#X connect 12 3 17 0;
#X connect 13 0 22 0;
#X connect 14 0 15 0;
#X connect 15 0 13 0;
#X connect 16 0 19 0;
#X connect 17 0 18 0;
#X connect 19 0 20 0;
#X connect 19 1 20 1;
#X connect 20 0 21 0;
#X connect 21 0 5 2;
#X connect 22 0 23 0;
#X connect 22 1 23 1;
#X connect 23 0 21 0;
#X connect 24 0 25 0;
#X connect 24 1 25 1;
#X connect 25 0 21 0;
#X connect 26 0 27 0;
#X connect 26 1 27 1;
#X connect 27 0 21 0;
