#N canvas 1 84 1358 659 10;
#X obj 521 74 inlet;
#X obj 117 276 random 2;
#X obj 172 273 random 2;
#X obj 231 274 random 2;
#X obj 287 274 random 2;
#X obj 343 273 random 2;
#X obj 399 273 random 2;
#X obj 457 271 random 2;
#X obj 513 271 random 2;
#X obj 565 512 outlet;
#X obj 442 167 t b b b b b b b b b b b b b b b b;
#X obj 546 406 pack f f f f f f f f f f f f f f f f;
#X obj 568 272 random 2;
#X obj 623 269 random 2;
#X obj 682 270 random 2;
#X obj 738 270 random 2;
#X obj 794 269 random 2;
#X obj 850 269 random 2;
#X obj 908 267 random 2;
#X obj 964 267 random 2;
#X connect 0 0 10 0;
#X connect 1 0 11 0;
#X connect 2 0 11 1;
#X connect 3 0 11 2;
#X connect 4 0 11 3;
#X connect 5 0 11 4;
#X connect 6 0 11 5;
#X connect 7 0 11 6;
#X connect 8 0 11 7;
#X connect 10 0 1 0;
#X connect 10 1 2 0;
#X connect 10 2 3 0;
#X connect 10 3 4 0;
#X connect 10 4 5 0;
#X connect 10 5 6 0;
#X connect 10 6 7 0;
#X connect 10 7 8 0;
#X connect 10 8 12 0;
#X connect 10 9 13 0;
#X connect 10 10 14 0;
#X connect 10 11 15 0;
#X connect 10 12 16 0;
#X connect 10 13 17 0;
#X connect 10 14 18 0;
#X connect 10 15 19 0;
#X connect 11 0 9 0;
#X connect 12 0 11 8;
#X connect 13 0 11 9;
#X connect 14 0 11 10;
#X connect 15 0 11 11;
#X connect 16 0 11 12;
#X connect 17 0 11 13;
#X connect 18 0 11 14;
#X connect 19 0 11 15;
