#N canvas 0 25 1272 692 10;
#X obj 583 78 inlet;
#X obj 474 168 random 100;
#X obj 483 196 / 100;
#X obj 168 110 inlet~;
#X obj 253 107 inlet~;
#X obj 198 500 outlet~;
#X obj 305 498 outlet~;
#X obj 709 165 random 100;
#X obj 715 194 / 100;
#X obj 583 125 t b b;
#X obj 197 374 mtl/bodyresonance~ /id bodyresonance;
#X msg 474 221 /wet \$1;
#X msg 708 218 /size \$1;
#X obj 475 246 t b a;
#X obj 538 315 route list;
#X obj 474 271 sssad/sssad wet-bodyresonance;
#X obj 713 243 t b a;
#X obj 712 268 sssad/sssad wet-size;
#X connect 0 0 9 0;
#X connect 1 0 2 0;
#X connect 2 0 11 0;
#X connect 3 0 10 0;
#X connect 4 0 10 1;
#X connect 7 0 8 0;
#X connect 8 0 12 0;
#X connect 9 0 1 0;
#X connect 9 1 7 0;
#X connect 10 0 5 0;
#X connect 10 1 6 0;
#X connect 11 0 13 0;
#X connect 12 0 16 0;
#X connect 13 0 15 0;
#X connect 13 1 15 1;
#X connect 14 0 10 2;
#X connect 15 0 14 0;
#X connect 16 0 17 0;
#X connect 16 1 17 1;
#X connect 17 0 14 0;
