#N canvas 0 25 1272 692 10;
#X obj 419 111 inlet;
#X obj 393 205 random 100;
#X obj 402 233 / 100;
#X msg 393 264 /wet \$1;
#X obj 590 236 random 500;
#X obj 168 110 inlet~;
#X obj 253 107 inlet~;
#X obj 198 500 outlet~;
#X obj 305 498 outlet~;
#X obj 589 264 / 100;
#X obj 419 158 t b b;
#X msg 589 292 /gain \$1;
#X obj 168 441 mtl/distoCrusher~ /id distoCrusher;
#X obj 588 320 t b a;
#X obj 580 351 sssad/sssad crusher-gain;
#X obj 537 387 route list;
#X obj 411 300 t b a;
#X obj 404 331 sssad/sssad crusher-wet;
#X connect 0 0 10 0;
#X connect 1 0 2 0;
#X connect 2 0 3 0;
#X connect 3 0 16 0;
#X connect 4 0 9 0;
#X connect 5 0 12 0;
#X connect 6 0 12 1;
#X connect 9 0 11 0;
#X connect 10 0 1 0;
#X connect 10 1 4 0;
#X connect 11 0 13 0;
#X connect 12 0 7 0;
#X connect 12 1 8 0;
#X connect 13 0 14 0;
#X connect 13 1 14 1;
#X connect 14 0 15 0;
#X connect 15 0 12 2;
#X connect 16 0 17 0;
#X connect 16 1 17 1;
#X connect 17 0 15 0;
