#N canvas 0 25 1272 692 10;
#X obj 278 120 inlet;
#X obj 168 110 inlet~;
#X obj 198 500 outlet~;
#X obj 278 167 t b b b b;
#X obj 202 433 foldback~;
#X obj 84 114 inlet~;
#X obj 114 504 outlet~;
#X obj 123 438 foldback~;
#X obj 257 199 random 1;
#X obj 264 227 - 1;
#X obj 328 200 random 1;
#X obj 236 285 t b a;
#X obj 220 311 sssad/sssad foldback;
#X obj 401 280 t b a;
#X obj 385 306 sssad/sssad foldback2;
#X connect 0 0 3 0;
#X connect 1 0 4 0;
#X connect 3 0 8 0;
#X connect 3 1 10 0;
#X connect 4 0 2 0;
#X connect 5 0 7 0;
#X connect 7 0 6 0;
#X connect 8 0 9 0;
#X connect 9 0 11 0;
#X connect 10 0 13 0;
#X connect 11 0 12 0;
#X connect 11 1 12 1;
#X connect 12 0 7 1;
#X connect 12 0 4 1;
#X connect 13 0 14 0;
#X connect 13 1 14 1;
#X connect 14 0 7 2;
#X connect 14 0 4 2;
