#N canvas 0 25 1272 692 10;
#X obj 372 115 inlet;
#X obj 168 110 inlet~;
#X obj 253 107 inlet~;
#X obj 265 565 outlet~;
#X obj 372 563 outlet~;
#X obj 265 523 mtl/sieve~ /id sieve;
#X msg 362 282 /samp \$1;
#X obj 371 213 random 100;
#X obj 388 254 / 100;
#X obj 370 163 t b b;
#X obj 513 231 random 1;
#X msg 508 273 /mode \$1;
#X obj 539 339 t b a;
#X obj 522 370 sssad/sssad sieve-mode;
#X obj 488 438 route list;
#X obj 385 333 t b a;
#X obj 355 372 sssad/sssad sieve-samp;
#X connect 0 0 9 0;
#X connect 1 0 5 0;
#X connect 2 0 5 1;
#X connect 5 0 3 0;
#X connect 5 1 4 0;
#X connect 6 0 15 0;
#X connect 7 0 8 0;
#X connect 8 0 6 0;
#X connect 9 0 7 0;
#X connect 9 1 10 0;
#X connect 10 0 11 0;
#X connect 11 0 12 0;
#X connect 12 0 13 0;
#X connect 12 1 13 1;
#X connect 13 0 14 0;
#X connect 14 0 5 2;
#X connect 15 0 16 0;
#X connect 15 1 16 1;
#X connect 16 0 14 0;
