#N canvas 0 25 1272 692 10;
#X obj 394 72 inlet;
#X obj 217 261 random 100;
#X obj 226 289 / 100;
#X msg 217 320 /wet \$1;
#X obj 40 109 inlet~;
#X obj 125 106 inlet~;
#X obj 67 547 outlet~;
#X obj 174 545 outlet~;
#X obj 474 195 random 100;
#X obj 355 228 random 100;
#X obj 475 228 / 100;
#X obj 74 459 mtl/phaser2~ /id phaser2;
#X obj 352 259 / 100;
#X msg 340 288 /fbdelay \$1;
#X msg 465 258 /feedback \$1;
#X obj 650 194 random 100;
#X obj 651 227 / 100;
#X msg 641 257 /speed \$1;
#X obj 794 197 random 100;
#X obj 795 230 / 100;
#X msg 785 260 /phase \$1;
#X obj 974 189 random 100;
#X obj 975 222 / 100;
#X msg 965 252 /depth \$1;
#X obj 394 119 t b b b b b b;
#X obj 968 281 t b a;
#X obj 961 309 sssad/sssad phaser2-depth;
#X obj 519 440 route list;
#X obj 794 288 t b a;
#X obj 799 313 sssad/sssad phaser2-phase;
#X obj 639 286 t b a;
#X obj 632 314 sssad/sssad phaser2-speed;
#X obj 457 284 t b a;
#X obj 451 314 sssad/sssad phaser2-feedback;
#X obj 338 316 t b a;
#X obj 330 344 sssad/sssad phaser2-fbdelay;
#X obj 214 351 t b a;
#X obj 206 379 sssad/sssad phaser2-wet;
#X connect 0 0 24 0;
#X connect 1 0 2 0;
#X connect 2 0 3 0;
#X connect 3 0 36 0;
#X connect 4 0 11 0;
#X connect 5 0 11 1;
#X connect 8 0 10 0;
#X connect 9 0 12 0;
#X connect 10 0 14 0;
#X connect 11 0 6 0;
#X connect 11 1 7 0;
#X connect 12 0 13 0;
#X connect 13 0 34 0;
#X connect 14 0 32 0;
#X connect 15 0 16 0;
#X connect 16 0 17 0;
#X connect 17 0 30 0;
#X connect 18 0 19 0;
#X connect 19 0 20 0;
#X connect 20 0 28 0;
#X connect 21 0 22 0;
#X connect 22 0 23 0;
#X connect 23 0 25 0;
#X connect 24 0 1 0;
#X connect 24 1 9 0;
#X connect 24 2 8 0;
#X connect 24 3 15 0;
#X connect 24 4 18 0;
#X connect 24 5 21 0;
#X connect 25 0 26 0;
#X connect 25 1 26 1;
#X connect 26 0 27 0;
#X connect 27 0 11 2;
#X connect 28 0 29 0;
#X connect 28 1 29 1;
#X connect 29 0 27 0;
#X connect 30 0 31 0;
#X connect 30 1 31 1;
#X connect 31 0 27 0;
#X connect 32 0 33 0;
#X connect 32 1 33 1;
#X connect 33 0 27 0;
#X connect 34 0 35 0;
#X connect 34 1 35 1;
#X connect 35 0 27 0;
#X connect 36 0 37 0;
#X connect 36 1 37 1;
#X connect 37 0 27 0;
