#N canvas 0 1 1272 692 10;
#X obj 641 -148 inlet;
#X obj 242 170 random 100;
#X obj 251 198 / 100;
#X msg 242 229 /wet \$1;
#X obj 67 -53 inlet~;
#X obj 152 -56 inlet~;
#X obj 27 517 outlet~;
#X obj 134 515 outlet~;
#X obj 474 95 random 100;
#X obj 343 137 random 100;
#X obj 475 128 / 100;
#X obj 340 168 / 100;
#X obj 600 75 random 100;
#X obj 600 104 / 100;
#X obj 726 34 random 100;
#X obj 727 67 / 100;
#X obj 867 13 random 100;
#X obj 72 448 mtl/platereverb~ /id platereverb;
#X msg 328 197 /decay_diffusion \$1;
#X msg 466 157 /decay_diffusion2 \$1;
#X msg 600 134 /inputdiffusion1 \$1;
#X msg 718 97 /inputdiffusion2 \$1;
#X msg 867 68 /excursion \$1;
#X obj 868 39 / 20;
#X obj 963 -21 random 100;
#X obj 964 5 / 100;
#X msg 963 34 /decay \$1;
#X obj 1049 -25 random 250;
#X msg 1048 0 /predelay \$1;
#X obj 1135 -55 random 22050;
#X msg 1132 -31 /damping \$1;
#X obj 640 -108 t b b b b b b b b b b;
#X obj 1234 -89 random 22050;
#X msg 1230 -68 /bandwidth \$1;
#X obj 1235 -43 t b a;
#X obj 1232 -15 sssad/sssad platereverb-bandwidth;
#X obj 751 368 route list;
#X obj 1137 -6 t b a;
#X obj 1134 22 sssad/sssad platereverb-damping;
#X obj 1054 25 t b a;
#X obj 1051 53 sssad/sssad platereverb-predelay;
#X obj 964 61 t b a;
#X obj 961 89 sssad/sssad platereverb-decayg;
#X obj 866 96 t b a;
#X obj 863 124 sssad/sssad platereverb-excursion;
#X obj 732 127 t b a;
#X obj 729 155 sssad/sssad platereverb-inputdiffusion2;
#X obj 602 164 t b a;
#X obj 599 192 sssad/sssad platereverb-inputdiffusion1;
#X obj 465 186 t b a;
#X obj 462 214 sssad/sssad platereverb-decay_diffusion2;
#X obj 355 230 t b a;
#X obj 352 258 sssad/sssad platereverb-decay_diffusion;
#X obj 264 265 t b a;
#X obj 261 292 sssad/sssad platereverb-wet;
#X connect 0 0 31 0;
#X connect 1 0 2 0;
#X connect 2 0 3 0;
#X connect 3 0 53 0;
#X connect 4 0 17 0;
#X connect 5 0 17 1;
#X connect 8 0 10 0;
#X connect 9 0 11 0;
#X connect 10 0 19 0;
#X connect 11 0 18 0;
#X connect 12 0 13 0;
#X connect 13 0 20 0;
#X connect 14 0 15 0;
#X connect 15 0 21 0;
#X connect 16 0 23 0;
#X connect 17 0 6 0;
#X connect 17 1 7 0;
#X connect 18 0 51 0;
#X connect 19 0 49 0;
#X connect 20 0 47 0;
#X connect 21 0 45 0;
#X connect 22 0 43 0;
#X connect 23 0 22 0;
#X connect 24 0 25 0;
#X connect 25 0 26 0;
#X connect 26 0 41 0;
#X connect 27 0 28 0;
#X connect 28 0 39 0;
#X connect 29 0 30 0;
#X connect 30 0 37 0;
#X connect 31 0 1 0;
#X connect 31 1 9 0;
#X connect 31 2 8 0;
#X connect 31 3 12 0;
#X connect 31 4 14 0;
#X connect 31 5 16 0;
#X connect 31 6 24 0;
#X connect 31 7 27 0;
#X connect 31 8 29 0;
#X connect 31 9 32 0;
#X connect 32 0 33 0;
#X connect 33 0 34 0;
#X connect 34 0 35 0;
#X connect 34 1 35 1;
#X connect 35 0 36 0;
#X connect 36 0 17 2;
#X connect 37 0 38 0;
#X connect 37 1 38 1;
#X connect 38 0 36 0;
#X connect 39 0 40 0;
#X connect 39 1 40 1;
#X connect 40 0 36 0;
#X connect 41 0 42 0;
#X connect 41 1 42 1;
#X connect 42 0 36 0;
#X connect 43 0 44 0;
#X connect 43 1 44 1;
#X connect 44 0 36 0;
#X connect 45 0 46 0;
#X connect 45 1 46 1;
#X connect 46 0 36 0;
#X connect 47 0 48 0;
#X connect 47 1 48 1;
#X connect 48 0 36 0;
#X connect 49 0 50 0;
#X connect 49 1 50 1;
#X connect 50 0 36 0;
#X connect 51 0 52 0;
#X connect 51 1 52 1;
#X connect 52 0 36 0;
#X connect 53 0 54 0;
#X connect 53 1 54 1;
#X connect 54 0 36 0;
