#N canvas 0 1 1272 692 10;
#X obj 251 24 inlet;
#X obj 126 43 inlet~;
#X obj 114 504 outlet~;
#X obj 103 464 harmgen~ _ _ _ _ _ _ _ _ _ _ _ _ _;
#X obj 363 69 t b b b b b b b b b b;
#X obj 1235 172 - 1;
#X obj 1231 142 random 2;
#X obj 1107 175 - 1;
#X obj 1094 147 random 2;
#X obj 187 27 inlet~;
#X obj 852 502 outlet~;
#X obj 741 460 harmgen~ _ _ _ _ _ _ _ _ _ _ _ _ _;
#X obj 1236 199 t b a;
#X obj 1222 224 sssad/sssad harmgen-9;
#X obj 1105 200 t b a;
#X obj 1078 223 sssad/sssad harmgen-10;
#X obj 956 175 - 1;
#X obj 952 145 random 2;
#X obj 828 178 - 1;
#X obj 815 150 random 2;
#X obj 957 202 t b a;
#X obj 826 203 t b a;
#X obj 677 176 - 1;
#X obj 673 146 random 2;
#X obj 549 179 - 1;
#X obj 536 151 random 2;
#X obj 678 203 t b a;
#X obj 547 204 t b a;
#X obj 398 177 - 1;
#X obj 394 147 random 2;
#X obj 270 180 - 1;
#X obj 257 152 random 2;
#X obj 399 204 t b a;
#X obj 268 205 t b a;
#X obj 116 180 - 1;
#X obj 112 150 random 2;
#X obj -12 183 - 1;
#X obj -25 155 random 2;
#X obj 117 207 t b a;
#X obj -14 208 t b a;
#X obj -41 231 sssad/sssad harmgen-1;
#X obj 103 232 sssad/sssad harmgen-2;
#X obj 241 228 sssad/sssad harmgen-3;
#X obj 386 229 sssad/sssad harmgen-4;
#X obj 521 227 sssad/sssad harmgen-5;
#X obj 664 228 sssad/sssad harmgen-6;
#X obj 799 226 sssad/sssad harmgen-7;
#X obj 943 227 sssad/sssad harmgen-8;
#X connect 0 0 4 0;
#X connect 1 0 3 0;
#X connect 3 0 2 0;
#X connect 4 0 37 0;
#X connect 4 1 35 0;
#X connect 4 2 31 0;
#X connect 4 3 29 0;
#X connect 4 4 25 0;
#X connect 4 5 23 0;
#X connect 4 6 19 0;
#X connect 4 7 17 0;
#X connect 4 8 6 0;
#X connect 4 9 8 0;
#X connect 5 0 12 0;
#X connect 6 0 5 0;
#X connect 7 0 14 0;
#X connect 8 0 7 0;
#X connect 9 0 11 0;
#X connect 11 0 10 0;
#X connect 12 0 13 0;
#X connect 12 1 13 1;
#X connect 13 0 11 9;
#X connect 13 0 3 9;
#X connect 14 0 15 0;
#X connect 14 1 15 1;
#X connect 15 0 11 10;
#X connect 15 0 3 10;
#X connect 16 0 20 0;
#X connect 17 0 16 0;
#X connect 18 0 21 0;
#X connect 19 0 18 0;
#X connect 20 0 47 0;
#X connect 20 1 47 1;
#X connect 21 0 46 0;
#X connect 21 1 46 1;
#X connect 22 0 26 0;
#X connect 23 0 22 0;
#X connect 24 0 27 0;
#X connect 25 0 24 0;
#X connect 26 0 45 0;
#X connect 26 1 45 1;
#X connect 27 0 44 0;
#X connect 27 1 44 1;
#X connect 28 0 32 0;
#X connect 29 0 28 0;
#X connect 30 0 33 0;
#X connect 31 0 30 0;
#X connect 32 0 43 0;
#X connect 32 1 43 1;
#X connect 33 0 42 0;
#X connect 33 1 42 1;
#X connect 34 0 38 0;
#X connect 35 0 34 0;
#X connect 36 0 39 0;
#X connect 37 0 36 0;
#X connect 38 0 41 0;
#X connect 38 1 41 1;
#X connect 39 0 40 0;
#X connect 39 1 40 1;
#X connect 40 0 11 1;
#X connect 40 0 3 1;
#X connect 41 0 11 2;
#X connect 41 0 3 2;
#X connect 42 0 11 3;
#X connect 42 0 3 3;
#X connect 43 0 11 4;
#X connect 43 0 3 4;
#X connect 44 0 11 5;
#X connect 44 0 3 5;
#X connect 45 0 11 6;
#X connect 45 0 3 6;
#X connect 46 0 11 7;
#X connect 46 0 3 7;
#X connect 47 0 11 8;
#X connect 47 0 3 8;
