#N canvas 0 1 1272 692 10;
#X obj 515 102 inlet;
#X obj 334 197 random 100;
#X obj 343 225 / 100;
#X msg 334 256 /wet \$1;
#X obj 40 109 inlet~;
#X obj 125 106 inlet~;
#X obj 70 499 outlet~;
#X obj 177 497 outlet~;
#X obj 563 184 random 100;
#X obj 560 215 / 100;
#X obj 34 441 mtl/distoWaveShaper-Tarrabia~ /id distoWaveShaper-Tarrabia
;
#X msg 548 244 /amount \$1;
#X obj 515 149 t b b;
#X obj 548 280 t b a;
#X obj 539 310 sssad/sssad tarrabia-amount;
#X obj 502 370 route list;
#X obj 338 283 t b a;
#X obj 329 313 sssad/sssad tarrabia-wet;
#X connect 0 0 12 0;
#X connect 1 0 2 0;
#X connect 2 0 3 0;
#X connect 3 0 16 0;
#X connect 4 0 10 0;
#X connect 5 0 10 1;
#X connect 8 0 9 0;
#X connect 9 0 11 0;
#X connect 10 0 6 0;
#X connect 10 1 7 0;
#X connect 11 0 13 0;
#X connect 12 0 1 0;
#X connect 12 1 8 0;
#X connect 13 0 14 0;
#X connect 13 1 14 1;
#X connect 14 0 15 0;
#X connect 15 0 10 2;
#X connect 16 0 17 0;
#X connect 16 1 17 1;
#X connect 17 0 15 0;
