#N canvas 0 25 1272 692 10;
#X obj 84 114 inlet~;
#X obj 114 504 outlet~;
#X obj 138 110 inlet~;
#X obj 168 500 outlet~;
#X obj 283 110 inlet;
#X obj 57 465 mtl/ugurphase~ /id ugurphase;
#X msg 185 238 /wet \$1;
#X obj 188 183 random 100;
#X obj 190 212 / 100;
#X obj 384 178 random 100;
#X obj 386 207 / 100;
#X obj 561 179 random 100;
#X obj 563 208 / 100;
#X obj 750 167 random 100;
#X obj 752 196 / 100;
#X msg 377 237 /squeeze \$1;
#X msg 564 237 /height \$1;
#X msg 744 226 /width \$1;
#X obj 325 407 route list;
#X obj 741 261 t b a;
#X obj 284 133 t b b b b;
#X obj 740 288 sssad/sssad ugurphase-width;
#X obj 562 262 t b a;
#X obj 561 289 sssad/sssad ugurphase-height;
#X obj 376 263 t b a;
#X obj 375 290 sssad/sssad ugurphase-squeeze;
#X obj 187 266 t b a;
#X obj 186 293 sssad/sssad ugurphase-wet;
#X connect 0 0 5 0;
#X connect 2 0 5 1;
#X connect 4 0 20 0;
#X connect 5 0 1 0;
#X connect 5 1 3 0;
#X connect 6 0 26 0;
#X connect 7 0 8 0;
#X connect 8 0 6 0;
#X connect 9 0 10 0;
#X connect 10 0 15 0;
#X connect 11 0 12 0;
#X connect 12 0 16 0;
#X connect 13 0 14 0;
#X connect 14 0 17 0;
#X connect 15 0 24 0;
#X connect 16 0 22 0;
#X connect 17 0 19 0;
#X connect 18 0 5 2;
#X connect 19 0 21 0;
#X connect 19 1 21 1;
#X connect 20 0 7 0;
#X connect 20 1 9 0;
#X connect 20 2 11 0;
#X connect 20 3 13 0;
#X connect 21 0 18 0;
#X connect 22 0 23 0;
#X connect 22 1 23 1;
#X connect 23 0 18 0;
#X connect 24 0 25 0;
#X connect 24 1 25 1;
#X connect 25 0 18 0;
#X connect 26 0 27 0;
#X connect 26 1 27 1;
#X connect 27 0 18 0;
