#N canvas 0 25 1272 692 10;
#X obj 394 72 inlet;
#X obj 40 109 inlet~;
#X obj 110 476 outlet~;
#X obj 257 476 outlet~;
#X obj 124 110 inlet~;
#X obj 364 190 random 100;
#X obj 365 214 / 100;
#X msg 366 241 /wet \$1;
#X obj 121 413 mtl/reslop~ 2000 /id reslop;
#X obj 595 225 random 100;
#X msg 579 262 /frequency \$1;
#X obj 831 227 random 100;
#X msg 832 256 /q \$1;
#X obj 394 119 t b b b;
#X obj 800 294 t b a;
#X obj 796 325 sssad/sssad reslop-q;
#X obj 684 378 route list;
#X obj 596 286 t b a;
#X obj 592 317 sssad/sssad reslop-frequency;
#X obj 377 277 t b a;
#X obj 373 308 sssad/sssad reslop-wet;
#X connect 0 0 13 0;
#X connect 1 0 8 0;
#X connect 4 0 8 1;
#X connect 5 0 6 0;
#X connect 6 0 7 0;
#X connect 7 0 19 0;
#X connect 8 0 2 0;
#X connect 8 1 3 0;
#X connect 9 0 10 0;
#X connect 10 0 17 0;
#X connect 11 0 12 0;
#X connect 12 0 14 0;
#X connect 13 0 5 0;
#X connect 13 1 9 0;
#X connect 13 2 11 0;
#X connect 14 0 15 0;
#X connect 14 1 15 1;
#X connect 15 0 16 0;
#X connect 16 0 8 2;
#X connect 17 0 18 0;
#X connect 17 1 18 1;
#X connect 18 0 16 0;
#X connect 19 0 20 0;
#X connect 19 1 20 1;
#X connect 20 0 16 0;
