#N canvas 0 25 1272 692 10;
#X obj 482 100 inlet;
#X obj 359 183 random 100;
#X obj 366 211 / 100;
#X msg 357 242 /wet \$1;
#X obj 168 110 inlet~;
#X obj 253 107 inlet~;
#X obj 198 500 outlet~;
#X obj 305 498 outlet~;
#X obj 544 223 / 100;
#X obj 728 192 random 100;
#X obj 737 220 / 100;
#X obj 545 195 random 100;
#X obj 479 140 t b b b;
#X obj 194 446 mtl/distoSign~ /id distoSign;
#X msg 527 253 /positive \$1;
#X msg 720 253 /negative \$1;
#X obj 693 290 t b a;
#X obj 677 316 sssad/sssad sign-negative;
#X obj 529 291 t b a;
#X obj 513 317 sssad/sssad sign-positive;
#X obj 348 284 t b a;
#X obj 332 310 sssad/sssad sign-wet;
#X obj 504 364 route list;
#X connect 0 0 12 0;
#X connect 1 0 2 0;
#X connect 2 0 3 0;
#X connect 3 0 20 0;
#X connect 4 0 13 0;
#X connect 5 0 13 1;
#X connect 8 0 14 0;
#X connect 9 0 10 0;
#X connect 10 0 15 0;
#X connect 11 0 8 0;
#X connect 12 0 1 0;
#X connect 12 1 11 0;
#X connect 12 2 9 0;
#X connect 13 0 6 0;
#X connect 13 1 7 0;
#X connect 14 0 18 0;
#X connect 15 0 16 0;
#X connect 16 0 17 0;
#X connect 16 1 17 1;
#X connect 17 0 22 0;
#X connect 18 0 19 0;
#X connect 18 1 19 1;
#X connect 19 0 22 0;
#X connect 20 0 21 0;
#X connect 20 1 21 1;
#X connect 21 0 22 0;
#X connect 22 0 13 2;
