#N canvas 0 25 1272 692 10;
#X obj 389 84 inlet;
#X obj 393 205 random 100;
#X obj 402 233 / 100;
#X obj 168 110 inlet~;
#X obj 253 107 inlet~;
#X obj 198 500 outlet~;
#X obj 305 498 outlet~;
#X msg 393 264 /wet \$1;
#X obj 196 374 mtl/blockswap~ /id blockswap;
#X obj 400 286 t b a;
#X obj 399 311 sssad/sssad wet-blockswap;
#X obj 402 340 route list;
#X connect 0 0 1 0;
#X connect 1 0 2 0;
#X connect 2 0 7 0;
#X connect 3 0 8 0;
#X connect 4 0 8 1;
#X connect 7 0 9 0;
#X connect 8 0 5 0;
#X connect 8 1 6 0;
#X connect 9 0 10 0;
#X connect 9 1 10 1;
#X connect 10 0 11 0;
#X connect 11 0 8 2;
