#N canvas 0 25 1272 692 10;
#X obj 419 111 inlet;
#X obj 416 140 random 100;
#X obj 168 110 inlet~;
#X obj 253 107 inlet~;
#X obj 198 500 outlet~;
#X obj 305 498 outlet~;
#X obj 202 376 mtl/distoCreb~ /id distoCreb;
#X obj 421 167 / 5;
#X obj 418 193 + 0.5;
#X msg 409 221 /pre-gain \$1;
#X obj 410 249 t b a;
#X obj 401 307 route list;
#X obj 408 277 sssad/sssad distoCreb-pre-gain;
#X connect 0 0 1 0;
#X connect 1 0 7 0;
#X connect 2 0 6 0;
#X connect 3 0 6 1;
#X connect 6 0 4 0;
#X connect 6 1 5 0;
#X connect 7 0 8 0;
#X connect 8 0 9 0;
#X connect 9 0 10 0;
#X connect 10 0 12 0;
#X connect 10 1 12 1;
#X connect 11 0 6 2;
#X connect 12 0 11 0;
