#N canvas 0 1 1272 692 10;
#X obj 482 100 inlet;
#X msg 368 270 /wet \$1;
#X obj 168 110 inlet~;
#X obj 253 107 inlet~;
#X obj 238 527 outlet~;
#X obj 345 525 outlet~;
#X obj 257 474 mtl/echoBp~ /id echoBp;
#X msg 518 264 /delayl \$1;
#X msg 691 257 /delayr \$1;
#X msg 775 230 /feedback \$1;
#X msg 948 220 /frequency \$1;
#X msg 1105 230 /q \$1;
#X msg 1176 224 /routing \$1;
#X obj 515 234 random 10000;
#X obj 683 229 random 10000;
#X obj 370 213 random 100;
#X obj 369 244 / 100;
#X obj 776 204 random 127;
#X obj 958 196 random 127;
#X obj 1095 198 random 62;
#X obj 1177 194 random 1;
#X obj 479 140 t b b b b b b b;
#X obj 1174 258 t b a;
#X obj 1168 288 sssad/sssad echobp-routing;
#X obj 686 414 route list;
#X obj 1098 310 t b a;
#X obj 1088 334 sssad/sssad echobp-q;
#X obj 949 250 t b a;
#X obj 944 280 sssad/sssad echobp-frequency;
#X obj 775 254 t b a;
#X obj 773 279 sssad/sssad echobp-feedback;
#X obj 689 282 t b a;
#X obj 683 312 sssad/sssad echobp-delayr;
#X obj 520 288 t b a;
#X obj 349 318 t b a;
#X obj 514 318 sssad/sssad echobp-delayl;
#X obj 343 348 sssad/sssad echobp-wet;
#X connect 0 0 21 0;
#X connect 1 0 34 0;
#X connect 2 0 6 0;
#X connect 3 0 6 1;
#X connect 6 0 4 0;
#X connect 6 1 5 0;
#X connect 7 0 33 0;
#X connect 8 0 31 0;
#X connect 9 0 29 0;
#X connect 10 0 27 0;
#X connect 11 0 25 0;
#X connect 12 0 22 0;
#X connect 13 0 7 0;
#X connect 14 0 8 0;
#X connect 15 0 16 0;
#X connect 16 0 1 0;
#X connect 17 0 9 0;
#X connect 18 0 10 0;
#X connect 19 0 11 0;
#X connect 20 0 12 0;
#X connect 21 0 15 0;
#X connect 21 1 13 0;
#X connect 21 2 14 0;
#X connect 21 3 17 0;
#X connect 21 4 18 0;
#X connect 21 5 19 0;
#X connect 21 6 20 0;
#X connect 22 0 23 0;
#X connect 22 1 23 1;
#X connect 23 0 24 0;
#X connect 24 0 6 2;
#X connect 25 0 26 0;
#X connect 25 1 26 1;
#X connect 26 0 24 0;
#X connect 27 0 28 0;
#X connect 27 1 28 1;
#X connect 28 0 24 0;
#X connect 29 0 30 0;
#X connect 29 1 30 1;
#X connect 30 0 24 0;
#X connect 31 0 32 0;
#X connect 31 1 32 1;
#X connect 32 0 24 0;
#X connect 33 0 35 0;
#X connect 33 1 35 1;
#X connect 34 0 36 0;
#X connect 34 1 36 1;
#X connect 35 0 24 0;
#X connect 36 0 24 0;
