#N canvas 0 25 1272 692 10;
#X obj 583 78 inlet;
#X obj 327 211 random 100;
#X obj 336 239 / 100;
#X msg 327 270 /wet \$1;
#X obj 168 110 inlet~;
#X obj 253 107 inlet~;
#X obj 198 500 outlet~;
#X obj 305 498 outlet~;
#X obj 708 212 random 100;
#X obj 567 222 random 100;
#X obj 712 244 / 100;
#X obj 203 465 mtl/shaper~ /id shaper;
#X obj 564 253 / 100;
#X msg 552 282 /amount \$1;
#X msg 700 273 /depth \$1;
#X obj 868 216 random 100;
#X obj 872 248 / 100;
#X msg 860 277 /limit \$1;
#X obj 1051 220 random 100;
#X obj 1055 252 / 100;
#X msg 1043 281 /gain \$1;
#X obj 583 125 t b b b b b;
#X obj 1044 315 t b a;
#X obj 1027 345 sssad/sssad shaper-gain;
#X obj 560 434 route list;
#X obj 879 317 t b a;
#X obj 860 347 sssad/sssad shaper-limit;
#X obj 720 312 t b a;
#X obj 701 342 sssad/sssad shaper-depth;
#X obj 552 307 t b a;
#X obj 541 343 sssad/sssad shaper-amount;
#X obj 321 318 t b a;
#X obj 302 348 sssad/sssad shaper-wet;
#X connect 0 0 21 0;
#X connect 1 0 2 0;
#X connect 2 0 3 0;
#X connect 3 0 31 0;
#X connect 4 0 11 0;
#X connect 5 0 11 1;
#X connect 8 0 10 0;
#X connect 9 0 12 0;
#X connect 10 0 14 0;
#X connect 11 0 6 0;
#X connect 11 1 7 0;
#X connect 12 0 13 0;
#X connect 13 0 29 0;
#X connect 14 0 27 0;
#X connect 15 0 16 0;
#X connect 16 0 17 0;
#X connect 17 0 25 0;
#X connect 18 0 19 0;
#X connect 19 0 20 0;
#X connect 20 0 22 0;
#X connect 21 0 1 0;
#X connect 21 1 9 0;
#X connect 21 2 8 0;
#X connect 21 3 15 0;
#X connect 21 4 18 0;
#X connect 22 0 23 0;
#X connect 22 1 23 1;
#X connect 23 0 24 0;
#X connect 24 0 11 2;
#X connect 25 0 26 0;
#X connect 25 1 26 1;
#X connect 26 0 24 0;
#X connect 27 0 28 0;
#X connect 27 1 28 1;
#X connect 28 0 24 0;
#X connect 29 0 30 0;
#X connect 29 1 30 1;
#X connect 30 0 24 0;
#X connect 31 0 32 0;
#X connect 31 1 32 1;
#X connect 32 0 24 0;
