#N canvas 0 25 1272 692 10;
#X obj 394 72 inlet;
#X obj 204 199 random 100;
#X obj 213 227 / 100;
#X msg 204 258 /wet \$1;
#X obj 40 109 inlet~;
#X obj 140 556 outlet~;
#X obj 287 556 outlet~;
#X obj 388 192 random 100;
#X obj 385 223 / 100;
#X obj 394 119 t b b b b;
#X obj 152 493 mtl/tremolo~ /id tremolo;
#X obj 124 110 inlet~;
#X msg 374 252 /amplitude \$1;
#X msg 552 259 /frequency \$1;
#X obj 553 238 + 1;
#X obj 553 217 / 10;
#X obj 552 192 random 290;
#X msg 744 261 /signalcontrol \$1;
#X obj 747 178 random 40;
#X obj 747 205 / 100;
#X obj 742 229 + 1;
#X obj 467 431 route list;
#X obj 741 293 t b a;
#X obj 739 319 sssad/sssad tremolo-signalcontrol;
#X obj 552 292 t b a;
#X obj 550 318 sssad/sssad tremolo-frequency;
#X obj 369 289 t b a;
#X obj 367 315 sssad/sssad tremolo-amplitude;
#X obj 202 284 t b a;
#X obj 200 310 sssad/sssad tremolo-wet;
#X connect 0 0 9 0;
#X connect 1 0 2 0;
#X connect 2 0 3 0;
#X connect 3 0 28 0;
#X connect 4 0 10 0;
#X connect 7 0 8 0;
#X connect 8 0 12 0;
#X connect 9 0 1 0;
#X connect 9 1 7 0;
#X connect 9 2 16 0;
#X connect 9 3 18 0;
#X connect 10 0 5 0;
#X connect 10 1 6 0;
#X connect 11 0 10 1;
#X connect 12 0 26 0;
#X connect 13 0 24 0;
#X connect 15 0 14 0;
#X connect 16 0 15 0;
#X connect 17 0 22 0;
#X connect 18 0 19 0;
#X connect 19 0 20 0;
#X connect 20 0 17 0;
#X connect 21 0 10 2;
#X connect 22 0 23 0;
#X connect 22 1 23 1;
#X connect 23 0 21 0;
#X connect 24 0 25 0;
#X connect 24 1 25 1;
#X connect 25 0 21 0;
#X connect 26 0 27 0;
#X connect 26 1 27 1;
#X connect 27 0 21 0;
#X connect 28 0 29 0;
#X connect 28 1 29 1;
#X connect 29 0 21 0;
