#N canvas 0 25 1272 692 10;
#X obj 339 117 inlet;
#X obj 322 199 random 100;
#X obj 331 227 / 100;
#X obj 168 110 inlet~;
#X obj 253 107 inlet~;
#X obj 222 614 outlet~;
#X obj 188 465 decimate~;
#X obj 325 615 outlet~;
#X obj 377 490 decimate~;
#X obj 339 164 t b b;
#X obj 535 251 random 32;
#X obj 321 254 t b a;
#X obj 320 279 sssad/sssad ratio-decimate;
#X obj 535 280 t b a;
#X obj 534 305 sssad/sssad bits-decimate;
#X connect 0 0 9 0;
#X connect 1 0 2 0;
#X connect 2 0 11 0;
#X connect 3 0 6 0;
#X connect 4 0 8 0;
#X connect 6 0 5 0;
#X connect 8 0 7 0;
#X connect 9 0 1 0;
#X connect 9 1 10 0;
#X connect 10 0 13 0;
#X connect 11 0 12 0;
#X connect 11 1 12 1;
#X connect 12 0 6 1;
#X connect 12 0 8 1;
#X connect 13 0 14 0;
#X connect 13 1 14 1;
#X connect 14 0 6 2;
#X connect 14 0 8 2;
