#N canvas 0 25 1272 692 10;
#X obj 583 78 inlet;
#X obj 379 240 random 100;
#X obj 168 110 inlet~;
#X obj 253 107 inlet~;
#X obj 198 500 outlet~;
#X obj 305 498 outlet~;
#X obj 192 444 mtl/noisegate~ /id noisegate;
#X msg 377 269 /thresold \$1;
#X obj 577 243 random 1000;
#X msg 576 265 /attack \$1;
#X obj 584 125 t b b b;
#X obj 764 190 random 1000;
#X msg 763 217 /decay \$1;
#X obj 777 297 t b a;
#X obj 751 326 sssad/sssad noisegate-decay;
#X obj 502 400 route list;
#X obj 376 298 t b a;
#X obj 571 304 t b a;
#X obj 545 333 sssad/sssad noisegate-attack;
#X obj 350 327 sssad/sssad noisegate-thresold;
#X connect 0 0 10 0;
#X connect 1 0 7 0;
#X connect 2 0 6 0;
#X connect 3 0 6 1;
#X connect 6 0 4 0;
#X connect 6 1 5 0;
#X connect 7 0 16 0;
#X connect 8 0 9 0;
#X connect 9 0 17 0;
#X connect 10 0 1 0;
#X connect 10 1 8 0;
#X connect 10 2 11 0;
#X connect 11 0 12 0;
#X connect 12 0 13 0;
#X connect 13 0 14 0;
#X connect 13 1 14 1;
#X connect 14 0 15 0;
#X connect 15 0 6 2;
#X connect 16 0 19 0;
#X connect 16 1 19 1;
#X connect 17 0 18 0;
#X connect 17 1 18 1;
#X connect 18 0 15 0;
#X connect 19 0 15 0;
