#N canvas 0 25 1272 692 10;
#X obj 278 120 inlet;
#X obj 168 110 inlet~;
#X obj 198 500 outlet~;
#X obj 84 114 inlet~;
#X obj 114 504 outlet~;
#X obj 235 194 random 11;
#X obj 578 200 random 4;
#X obj 116 469 mtl/FFT~ /id FFT;
#X obj 281 151 t b b;
#X msg 233 218 /FFT-size \$1;
#X msg 571 227 /FFT-overlap \$1;
#X obj 231 245 t b a;
#X obj 215 271 sssad/sssad FFT-size;
#X obj 367 393 route list;
#X obj 575 277 t b a;
#X obj 559 303 sssad/sssad FFT-overlap;
#X connect 0 0 8 0;
#X connect 1 0 7 1;
#X connect 3 0 7 0;
#X connect 5 0 9 0;
#X connect 6 0 10 0;
#X connect 7 0 4 0;
#X connect 7 1 2 0;
#X connect 8 0 5 0;
#X connect 8 1 6 0;
#X connect 9 0 11 0;
#X connect 10 0 14 0;
#X connect 11 0 12 0;
#X connect 11 1 12 1;
#X connect 12 0 13 0;
#X connect 13 0 7 2;
#X connect 14 0 15 0;
#X connect 14 1 15 1;
#X connect 15 0 13 0;
