#N canvas 0 25 1272 692 10;
#X obj 455 76 inlet;
#X obj 360 179 random 100;
#X obj 369 207 / 100;
#X msg 360 238 /wet \$1;
#X obj 40 109 inlet~;
#X obj 125 106 inlet~;
#X obj 70 499 outlet~;
#X obj 177 497 outlet~;
#X obj 551 193 random 100;
#X obj 548 216 / 100;
#X msg 548 243 /amount \$1;
#X obj 455 123 t b b;
#X obj 71 374 mtl/distoWaveShaper-DeJong~ /id distoWaveShaper-DeJong
;
#X obj 546 267 t b a;
#X obj 375 267 t b a;
#X obj 529 292 sssad/sssad dejong-amount;
#X obj 359 293 sssad/sssad dejong-wet;
#X obj 469 338 route list;
#X connect 0 0 11 0;
#X connect 1 0 2 0;
#X connect 2 0 3 0;
#X connect 3 0 14 0;
#X connect 4 0 12 0;
#X connect 5 0 12 1;
#X connect 8 0 9 0;
#X connect 9 0 10 0;
#X connect 10 0 13 0;
#X connect 11 0 1 0;
#X connect 11 1 8 0;
#X connect 12 0 6 0;
#X connect 12 1 7 0;
#X connect 13 0 15 0;
#X connect 13 1 15 1;
#X connect 14 0 16 0;
#X connect 14 1 16 1;
#X connect 15 0 17 0;
#X connect 16 0 17 0;
#X connect 17 0 12 2;
