#N canvas 0 25 1272 692 10;
#X obj 394 94 inlet;
#X obj 168 110 inlet~;
#X obj 198 500 outlet~;
#X obj 84 114 inlet~;
#X obj 114 504 outlet~;
#X obj 408 173 random 100;
#X obj 408 205 / 100;
#X obj 110 379 mtl/fftNoiseReduce~ /id fftNoiseReduce;
#X msg 408 232 amount \$1;
#X obj 404 262 t b a;
#X obj 388 288 sssad/sssad FFTNoisereduce-amount;
#X obj 380 319 route list;
#X connect 0 0 5 0;
#X connect 1 0 7 1;
#X connect 3 0 7 0;
#X connect 5 0 6 0;
#X connect 6 0 8 0;
#X connect 7 0 4 0;
#X connect 7 1 2 0;
#X connect 8 0 9 0;
#X connect 9 0 10 0;
#X connect 9 1 10 1;
#X connect 10 0 11 0;
#X connect 11 0 7 2;
