#N canvas 0 1 1272 692 10;
#X obj 347 47 inlet;
#X obj 285 151 random 100;
#X obj 294 179 / 100;
#X msg 285 210 /wet \$1;
#X obj 40 109 inlet~;
#X obj 125 106 inlet~;
#X obj 70 499 outlet~;
#X obj 177 497 outlet~;
#X obj 571 161 random 100;
#X obj 572 194 / 100;
#X msg 562 224 /feedback \$1;
#X obj 959 136 random 100;
#X obj 291 420 mtl/dubdel~ /id dubdel;
#X obj 405 162 random 127;
#X msg 409 186 /bpitch \$1;
#X obj 660 162 random 1000;
#X msg 662 188 /bq \$1;
#X obj 796 162 random 1000;
#X msg 795 184 /basedur \$1;
#X obj 963 162 / 10;
#X msg 960 189 /dell \$1;
#X obj 347 94 t b b b b b b b;
#X obj 1128 125 random 100;
#X obj 1140 151 / 10;
#X msg 1130 181 /delr \$1;
#X obj 1131 206 t b a;
#X obj 1125 236 sssad/sssad dubdel-delr;
#X obj 558 385 route list;
#X obj 960 214 t b a;
#X obj 954 244 sssad/sssad dubdel-dell;
#X obj 794 215 t b a;
#X obj 788 245 sssad/sssad dubdel-basedur;
#X obj 659 215 t b a;
#X obj 653 245 sssad/sssad dubdel-bq;
#X obj 563 250 t b a;
#X obj 557 280 sssad/sssad dubdel-feedback;
#X obj 403 215 t b a;
#X obj 397 245 sssad/sssad dubdel-bpitch;
#X obj 282 236 t b a;
#X obj 262 274 sssad/sssad dubdel-wet;
#X connect 0 0 21 0;
#X connect 1 0 2 0;
#X connect 2 0 3 0;
#X connect 3 0 38 0;
#X connect 4 0 12 0;
#X connect 5 0 12 1;
#X connect 8 0 9 0;
#X connect 9 0 10 0;
#X connect 10 0 34 0;
#X connect 11 0 19 0;
#X connect 12 0 6 0;
#X connect 12 1 7 0;
#X connect 13 0 14 0;
#X connect 14 0 36 0;
#X connect 15 0 16 0;
#X connect 16 0 32 0;
#X connect 17 0 18 0;
#X connect 18 0 30 0;
#X connect 19 0 20 0;
#X connect 20 0 28 0;
#X connect 21 0 1 0;
#X connect 21 1 13 0;
#X connect 21 2 8 0;
#X connect 21 3 15 0;
#X connect 21 4 17 0;
#X connect 21 5 11 0;
#X connect 21 6 22 0;
#X connect 22 0 23 0;
#X connect 23 0 24 0;
#X connect 24 0 25 0;
#X connect 25 0 26 0;
#X connect 25 1 26 1;
#X connect 26 0 27 0;
#X connect 27 0 12 2;
#X connect 28 0 29 0;
#X connect 28 1 29 1;
#X connect 29 0 27 0;
#X connect 30 0 31 0;
#X connect 30 1 31 1;
#X connect 31 0 27 0;
#X connect 32 0 33 0;
#X connect 32 1 33 1;
#X connect 33 0 27 0;
#X connect 34 0 35 0;
#X connect 34 1 35 1;
#X connect 35 0 27 0;
#X connect 36 0 37 0;
#X connect 36 1 37 1;
#X connect 37 0 27 0;
#X connect 38 0 39 0;
#X connect 38 1 39 1;
#X connect 39 0 27 0;
