#N canvas 0 25 1272 692 10;
#X obj 84 114 inlet~;
#X obj 114 504 outlet~;
#X obj 138 110 inlet~;
#X obj 168 500 outlet~;
#X obj 253 109 inlet;
#X obj 84 374 wavewrap~;
#X obj 166 375 wavewrap~;
#X obj 252 175 random 10;
#X obj 258 228 t b a;
#X obj 216 254 sssad/sssad wavewrap;
#X connect 0 0 5 0;
#X connect 2 0 6 0;
#X connect 4 0 7 0;
#X connect 5 0 1 0;
#X connect 6 0 3 0;
#X connect 7 0 8 0;
#X connect 8 0 9 0;
#X connect 8 1 9 1;
#X connect 9 0 5 1;
#X connect 9 0 6 1;
