#N canvas 0 25 1272 692 10;
#X obj 389 84 inlet;
#X obj 423 172 random 100;
#X obj 432 200 / 100;
#X obj 168 110 inlet~;
#X obj 253 107 inlet~;
#X obj 198 500 outlet~;
#X obj 305 498 outlet~;
#X obj 196 374 mtl/blockmirror~ /id blockmirror;
#X msg 423 231 /wet \$1;
#X obj 411 305 route list;
#X obj 421 254 t b a;
#X obj 405 280 sssad/sssad wet-blockmirror;
#X connect 0 0 1 0;
#X connect 1 0 2 0;
#X connect 2 0 8 0;
#X connect 3 0 7 0;
#X connect 4 0 7 1;
#X connect 7 0 5 0;
#X connect 7 1 6 0;
#X connect 8 0 10 0;
#X connect 9 0 7 2;
#X connect 10 0 11 0;
#X connect 10 1 11 1;
#X connect 11 0 9 0;
