#N canvas 0 25 1272 692 10;
#X obj 583 78 inlet;
#X obj 168 110 inlet~;
#X obj 253 107 inlet~;
#X obj 198 500 outlet~;
#X obj 305 498 outlet~;
#X msg 791 247 /low \$1;
#X obj 253 395 mtl/eq3~ /id eq3;
#X msg 446 213 /high \$1;
#X msg 619 243 /mid \$1;
#X obj 583 125 t b b b;
#X obj 442 160 random 100;
#X obj 452 185 / 100;
#X obj 612 186 random 100;
#X obj 616 214 / 100;
#X obj 785 194 random 100;
#X obj 790 219 / 100;
#X obj 797 274 t b a;
#X obj 781 300 sssad/sssad eq3-low;
#X obj 621 272 t b a;
#X obj 605 298 sssad/sssad eq3-mid;
#X obj 460 247 t b a;
#X obj 444 273 sssad/sssad eq3-high;
#X obj 570 336 route list;
#X connect 0 0 9 0;
#X connect 1 0 6 0;
#X connect 2 0 6 1;
#X connect 5 0 16 0;
#X connect 6 0 3 0;
#X connect 6 1 4 0;
#X connect 7 0 20 0;
#X connect 8 0 18 0;
#X connect 9 0 10 0;
#X connect 9 1 12 0;
#X connect 9 2 14 0;
#X connect 10 0 11 0;
#X connect 11 0 7 0;
#X connect 12 0 13 0;
#X connect 13 0 8 0;
#X connect 14 0 15 0;
#X connect 15 0 5 0;
#X connect 16 0 17 0;
#X connect 16 1 17 1;
#X connect 17 0 22 0;
#X connect 18 0 19 0;
#X connect 18 1 19 1;
#X connect 19 0 22 0;
#X connect 20 0 21 0;
#X connect 20 1 21 1;
#X connect 21 0 22 0;
#X connect 22 0 6 2;
