#N canvas 1 84 1358 659 10;
#X obj 423 244 pack f f f f f f f f;
#X obj 521 65 inlet;
#X obj 394 193 random 2;
#X obj 449 190 random 2;
#X obj 508 191 random 2;
#X obj 564 191 random 2;
#X obj 620 190 random 2;
#X obj 676 190 random 2;
#X obj 734 188 random 2;
#X obj 790 188 random 2;
#X obj 562 143 t b b b b b b b b;
#X obj 442 350 outlet;
#X connect 0 0 11 0;
#X connect 1 0 10 0;
#X connect 2 0 0 0;
#X connect 3 0 0 1;
#X connect 4 0 0 2;
#X connect 5 0 0 3;
#X connect 6 0 0 4;
#X connect 7 0 0 5;
#X connect 8 0 0 6;
#X connect 9 0 0 7;
#X connect 10 0 2 0;
#X connect 10 1 3 0;
#X connect 10 2 4 0;
#X connect 10 3 5 0;
#X connect 10 4 6 0;
#X connect 10 5 7 0;
#X connect 10 6 8 0;
#X connect 10 7 9 0;
