#N canvas 0 82 1366 662 10;
#X obj 295 321 pack f f f f f f f f;
#X obj 393 142 inlet;
#X obj 447 185 bng 15 250 50 0 empty empty empty 17 7 0 10 -262144
-1 -1;
#X obj 434 220 t b b b b b b b b;
#X obj 248 263 random 129;
#X obj 314 264 random 129;
#X obj 380 264 random 129;
#X obj 446 265 random 129;
#X obj 512 267 random 129;
#X obj 579 269 random 129;
#X obj 648 267 random 129;
#X obj 716 267 random 129;
#X obj 299 403 outlet;
#X connect 0 0 12 0;
#X connect 1 0 3 0;
#X connect 2 0 3 0;
#X connect 3 0 4 0;
#X connect 3 1 5 0;
#X connect 3 2 6 0;
#X connect 3 3 7 0;
#X connect 3 4 8 0;
#X connect 3 5 9 0;
#X connect 3 6 10 0;
#X connect 3 7 11 0;
#X connect 4 0 0 0;
#X connect 5 0 0 1;
#X connect 6 0 0 2;
#X connect 7 0 0 3;
#X connect 8 0 0 4;
#X connect 9 0 0 5;
#X connect 10 0 0 6;
#X connect 11 0 0 7;
