#N canvas 0 25 1272 692 10;
#X obj 583 78 inlet;
#X obj 168 110 inlet~;
#X obj 253 107 inlet~;
#X obj 198 500 outlet~;
#X obj 305 498 outlet~;
#X obj 791 202 random 100;
#X obj 591 206 random 100;
#X obj 203 448 mtl/chorus2~ /id chorus2;
#X obj 595 235 / 10;
#X msg 587 259 /frequency \$1;
#X obj 795 230 / 10;
#X msg 792 261 /modulation \$1;
#X obj 583 125 t b b b;
#X obj 424 201 random 100;
#X obj 428 230 / 100;
#X msg 420 254 /wet \$1;
#X obj 792 285 t b a;
#X obj 791 310 sssad/sssad modulation-chorus2;
#X obj 583 292 t b a;
#X obj 582 317 sssad/sssad frequency-chorus2;
#X obj 396 291 t b a;
#X obj 395 316 sssad/sssad wet-chorus2;
#X obj 500 380 route list;
#X connect 0 0 12 0;
#X connect 1 0 7 0;
#X connect 2 0 7 1;
#X connect 5 0 10 0;
#X connect 6 0 8 0;
#X connect 7 0 3 0;
#X connect 7 1 4 0;
#X connect 8 0 9 0;
#X connect 9 0 18 0;
#X connect 10 0 11 0;
#X connect 11 0 16 0;
#X connect 12 0 13 0;
#X connect 12 1 6 0;
#X connect 12 2 5 0;
#X connect 13 0 14 0;
#X connect 14 0 15 0;
#X connect 15 0 20 0;
#X connect 16 0 17 0;
#X connect 16 1 17 1;
#X connect 17 0 22 0;
#X connect 18 0 19 0;
#X connect 18 1 19 1;
#X connect 19 0 22 0;
#X connect 20 0 21 0;
#X connect 20 1 21 1;
#X connect 21 0 22 0;
#X connect 22 0 7 2;
