#N canvas 1 82 1364 661 10;
#X obj 551 -90 inlet;
#X obj 190 505 outlet;
#X obj 206 155 random 12;
#X obj 303 195 random 12;
#X obj 379 230 random 12;
#X obj 455 275 random 12;
#X obj 419 131 random 12;
#X obj 480 180 random 12;
#X obj 538 227 random 12;
#X obj 607 271 random 12;
#X obj 256 175 random 3;
#X obj 342 214 random 3;
#X obj 420 251 random 3;
#X obj 492 292 random 3;
#X obj 449 157 random 3;
#X obj 510 204 random 3;
#X obj 574 248 random 3;
#X obj 635 292 random 3;
#X obj 506 -15 t b b b b b b b b b b b b b b b b b b b b b b b b b
b b b b b b b;
#X obj 560 412 pack f f f f f f f f f f f f f f f f f f f f f f f f
f f f f f f f f;
#X obj 617 125 random 12;
#X obj 671 167 random 12;
#X obj 723 205 random 12;
#X obj 780 250 random 12;
#X obj 643 145 random 3;
#X obj 696 185 random 3;
#X obj 754 229 random 3;
#X obj 805 269 random 3;
#X obj 777 119 random 12;
#X obj 830 166 random 12;
#X obj 882 209 random 12;
#X obj 925 254 random 12;
#X obj 804 142 random 3;
#X obj 859 188 random 3;
#X obj 906 233 random 3;
#X obj 944 275 random 3;
#X connect 0 0 18 0;
#X connect 2 0 19 0;
#X connect 3 0 19 2;
#X connect 4 0 19 4;
#X connect 5 0 19 6;
#X connect 6 0 19 8;
#X connect 7 0 19 10;
#X connect 8 0 19 12;
#X connect 9 0 19 14;
#X connect 10 0 19 1;
#X connect 11 0 19 3;
#X connect 12 0 19 5;
#X connect 13 0 19 7;
#X connect 14 0 19 9;
#X connect 15 0 19 11;
#X connect 16 0 19 13;
#X connect 17 0 19 15;
#X connect 18 0 2 0;
#X connect 18 1 10 0;
#X connect 18 2 3 0;
#X connect 18 3 11 0;
#X connect 18 4 4 0;
#X connect 18 5 12 0;
#X connect 18 6 5 0;
#X connect 18 7 13 0;
#X connect 18 8 6 0;
#X connect 18 9 14 0;
#X connect 18 10 7 0;
#X connect 18 11 15 0;
#X connect 18 12 8 0;
#X connect 18 13 16 0;
#X connect 18 14 9 0;
#X connect 18 15 17 0;
#X connect 18 16 20 0;
#X connect 18 17 24 0;
#X connect 18 18 21 0;
#X connect 18 19 25 0;
#X connect 18 20 22 0;
#X connect 18 21 26 0;
#X connect 18 22 23 0;
#X connect 18 23 27 0;
#X connect 18 24 28 0;
#X connect 18 25 32 0;
#X connect 18 26 29 0;
#X connect 18 27 33 0;
#X connect 18 28 30 0;
#X connect 18 29 34 0;
#X connect 18 30 31 0;
#X connect 18 31 35 0;
#X connect 19 0 1 0;
#X connect 20 0 19 16;
#X connect 21 0 19 18;
#X connect 22 0 19 20;
#X connect 23 0 19 22;
#X connect 24 0 19 17;
#X connect 25 0 19 19;
#X connect 26 0 19 21;
#X connect 27 0 19 23;
#X connect 28 0 19 24;
#X connect 29 0 19 26;
#X connect 30 0 19 28;
#X connect 31 0 19 30;
#X connect 32 0 19 25;
#X connect 33 0 19 27;
#X connect 34 0 19 29;
#X connect 35 0 19 31;
