#N canvas 0 25 1272 692 10;
#X obj 482 100 inlet;
#X msg 330 252 /wet \$1;
#X obj 168 110 inlet~;
#X obj 253 107 inlet~;
#X obj 198 500 outlet~;
#X obj 305 498 outlet~;
#X obj 332 195 random 100;
#X obj 331 226 / 100;
#X obj 804 213 random 100;
#X obj 479 140 t b b b;
#X obj 187 445 mtl/filterPeakSig~ /id filterPeakSig;
#X msg 578 240 /frequency \$1;
#X msg 812 240 /q \$1;
#X obj 574 216 random 1000;
#X obj 804 270 t b a;
#X obj 803 299 sssad/sssad filterPeakSig-q;
#X obj 662 345 route list;
#X obj 576 267 t b a;
#X obj 575 296 sssad/sssad filterPeakSig-frequency;
#X obj 334 281 t b a;
#X obj 333 310 sssad/sssad filterPeakSig-wet;
#X connect 0 0 9 0;
#X connect 1 0 19 0;
#X connect 2 0 10 0;
#X connect 3 0 10 1;
#X connect 6 0 7 0;
#X connect 7 0 1 0;
#X connect 8 0 12 0;
#X connect 9 0 6 0;
#X connect 9 1 13 0;
#X connect 9 2 8 0;
#X connect 10 0 4 0;
#X connect 10 1 5 0;
#X connect 11 0 17 0;
#X connect 12 0 14 0;
#X connect 13 0 11 0;
#X connect 14 0 15 0;
#X connect 14 1 15 1;
#X connect 15 0 16 0;
#X connect 16 0 10 2;
#X connect 17 0 18 0;
#X connect 17 1 18 1;
#X connect 18 0 16 0;
#X connect 19 0 20 0;
#X connect 19 1 20 1;
#X connect 20 0 16 0;
