#N canvas 0 25 1272 692 10;
#X obj 482 100 inlet;
#X obj 168 110 inlet~;
#X obj 253 107 inlet~;
#X obj 208 601 outlet~;
#X obj 315 599 outlet~;
#X obj 479 140 t b b b;
#X obj 180 552 mtl/pitchShift~ /id pitchShift;
#X obj 317 328 random 100;
#X obj 481 310 random 1;
#X msg 479 337 /method \$1;
#X msg 599 302 /switch \$1;
#X obj 599 275 random 1;
#X msg 296 354 /transpose \$1;
#X obj 597 331 t b a;
#X obj 594 359 sssad/sssad pitchshift-switch;
#X obj 556 454 route list;
#X obj 478 364 t b a;
#X obj 475 392 sssad/sssad pitchshift-method;
#X obj 300 388 t b a;
#X obj 297 416 sssad/sssad pitchshift-transpose;
#X connect 0 0 5 0;
#X connect 1 0 6 0;
#X connect 2 0 6 1;
#X connect 5 0 7 0;
#X connect 5 1 8 0;
#X connect 5 2 11 0;
#X connect 6 0 3 0;
#X connect 6 1 4 0;
#X connect 7 0 12 0;
#X connect 8 0 9 0;
#X connect 9 0 16 0;
#X connect 10 0 13 0;
#X connect 11 0 10 0;
#X connect 12 0 18 0;
#X connect 13 0 14 0;
#X connect 13 1 14 1;
#X connect 14 0 15 0;
#X connect 15 0 6 2;
#X connect 16 0 17 0;
#X connect 16 1 17 1;
#X connect 17 0 15 0;
#X connect 18 0 19 0;
#X connect 18 1 19 1;
#X connect 19 0 15 0;
