#N canvas 0 25 1272 692 10;
#X obj 394 72 inlet;
#X obj 231 199 random 100;
#X obj 240 227 / 100;
#X msg 231 258 /wet \$1;
#X obj 40 109 inlet~;
#X obj 125 106 inlet~;
#X obj 125 544 outlet~;
#X obj 257 528 outlet~;
#X obj 467 204 random 100;
#X obj 650 245 / 100;
#X obj 121 472 mtl/chorus3~ /id chorus3;
#X msg 452 265 /frequency \$1;
#X obj 464 235 / 10;
#X msg 640 275 /modulation \$1;
#X obj 649 212 random 300;
#X obj 394 119 t b b b;
#X obj 639 303 t b a;
#X obj 638 328 sssad/sssad modulation-chorus3;
#X obj 450 302 t b a;
#X obj 449 327 sssad/sssad frequency-chorus3;
#X obj 234 289 t b a;
#X obj 233 314 sssad/sssad wet-chorus3;
#X obj 474 381 route list;
#X connect 0 0 15 0;
#X connect 1 0 2 0;
#X connect 2 0 3 0;
#X connect 3 0 20 0;
#X connect 4 0 10 0;
#X connect 5 0 10 1;
#X connect 8 0 12 0;
#X connect 9 0 13 0;
#X connect 10 0 6 0;
#X connect 10 1 7 0;
#X connect 11 0 18 0;
#X connect 12 0 11 0;
#X connect 13 0 16 0;
#X connect 14 0 9 0;
#X connect 15 0 1 0;
#X connect 15 1 8 0;
#X connect 15 2 14 0;
#X connect 16 0 17 0;
#X connect 16 1 17 1;
#X connect 17 0 22 0;
#X connect 18 0 19 0;
#X connect 18 1 19 1;
#X connect 19 0 22 0;
#X connect 20 0 21 0;
#X connect 20 1 21 1;
#X connect 21 0 22 0;
#X connect 22 0 10 2;
