#N canvas 0 25 1272 692 10;
#X obj 482 100 inlet;
#X obj 393 205 random 100;
#X obj 402 233 / 100;
#X msg 393 264 /wet \$1;
#X obj 168 110 inlet~;
#X obj 253 107 inlet~;
#X obj 198 500 outlet~;
#X obj 305 498 outlet~;
#X obj 206 424 mtl/distoTanh~ /id distoTanh;
#X obj 553 205 random 99;
#X obj 552 233 + 1;
#X obj 479 140 t b b;
#X msg 551 259 /amount \$1;
#X obj 550 295 t b a;
#X obj 506 350 route list;
#X obj 534 321 sssad/sssad tanh-samplerate;
#X obj 382 296 t b a;
#X obj 366 322 sssad/sssad tanh-wet;
#X connect 0 0 11 0;
#X connect 1 0 2 0;
#X connect 2 0 3 0;
#X connect 3 0 16 0;
#X connect 4 0 8 0;
#X connect 5 0 8 1;
#X connect 8 0 6 0;
#X connect 8 1 7 0;
#X connect 9 0 10 0;
#X connect 10 0 12 0;
#X connect 11 0 1 0;
#X connect 11 1 9 0;
#X connect 12 0 13 0;
#X connect 13 0 15 0;
#X connect 13 1 15 1;
#X connect 14 0 8 2;
#X connect 15 0 14 0;
#X connect 16 0 17 0;
#X connect 16 1 17 1;
#X connect 17 0 14 0;
