#N canvas 0 25 1272 692 10;
#X obj 583 78 inlet;
#X obj 435 184 random 100;
#X obj 444 212 / 100;
#X obj 168 110 inlet~;
#X obj 253 107 inlet~;
#X obj 198 500 outlet~;
#X obj 305 498 outlet~;
#X obj 692 215 random 100;
#X obj 698 244 / 100;
#X obj 224 413 mtl/bitcrusher~ /id bitcrusher;
#X msg 435 243 /bitdepth \$1;
#X msg 691 268 /samplerate \$1;
#X obj 583 125 t b b;
#X obj 463 345 route list;
#X obj 471 283 t b a;
#X obj 692 292 t b a;
#X obj 676 318 sssad/sssad bitcrusher-samplerate;
#X obj 429 309 sssad/sssad bitcrusher-bitdepth;
#X connect 0 0 12 0;
#X connect 1 0 2 0;
#X connect 2 0 10 0;
#X connect 3 0 9 0;
#X connect 4 0 9 1;
#X connect 7 0 8 0;
#X connect 8 0 11 0;
#X connect 9 0 5 0;
#X connect 9 1 6 0;
#X connect 10 0 14 0;
#X connect 11 0 15 0;
#X connect 12 0 1 0;
#X connect 12 1 7 0;
#X connect 13 0 9 2;
#X connect 14 0 17 0;
#X connect 14 1 17 1;
#X connect 15 0 16 0;
#X connect 15 1 16 1;
#X connect 16 0 13 0;
#X connect 17 0 13 0;
