#N canvas 0 25 1272 692 10;
#X obj 278 120 inlet;
#X obj 168 110 inlet~;
#X obj 198 500 outlet~;
#X obj 84 114 inlet~;
#X obj 114 504 outlet~;
#X obj 112 379 freqdiv~;
#X obj 198 375 freqdiv~;
#X obj 289 183 random 8;
#X obj 307 234 t b a;
#X obj 265 260 sssad/sssad freqdiv;
#X connect 0 0 7 0;
#X connect 1 0 6 0;
#X connect 3 0 5 0;
#X connect 5 0 4 0;
#X connect 6 0 2 0;
#X connect 7 0 8 0;
#X connect 8 0 9 0;
#X connect 8 1 9 1;
#X connect 9 0 5 1;
#X connect 9 0 6 1;
