#N canvas 0 1 1272 692 10;
#X obj 608 22 inlet;
#X msg 300 324 /wet \$1;
#X obj 47 102 inlet~;
#X obj 132 99 inlet~;
#X obj 161 652 outlet~;
#X obj 268 650 outlet~;
#X obj 136 610 mtl/distoNonmonotone~ /id distoNonmonotone;
#X obj 615 67 t b b b b b b b b b b b;
#X obj 300 265 random 1000;
#X obj 401 240 random 1000;
#X obj 458 185 random 1000;
#X obj 561 153 random 1000;
#X obj 636 120 random 1000;
#X obj 661 293 random 1000;
#X obj 759 269 random 1000;
#X obj 842 221 random 1000;
#X obj 944 182 random 1000;
#X obj 1046 149 random 1000;
#X obj 1143 86 random 1000;
#X obj 298 297 / 100;
#X msg 402 268 /freq1 \$1;
#X msg 468 212 /amp1 \$1;
#X msg 562 178 /base1 \$1;
#X msg 643 144 /freq2 \$1;
#X msg 663 321 /amp2 \$1;
#X msg 762 297 /base2 \$1;
#X msg 845 247 /freqfeed \$1;
#X msg 948 210 /basefeed \$1;
#X msg 1056 178 /ampfeed \$1;
#X msg 1143 141 /feedback \$1;
#X obj 1146 111 / 100;
#X obj 1147 171 t b a;
#X obj 1138 201 sssad/sssad nonmonotone-feedback;
#X obj 592 531 route list;
#X obj 1058 204 t b a;
#X obj 1049 234 sssad/sssad nonmonotone-ampfeed;
#X obj 950 235 t b a;
#X obj 941 265 sssad/sssad nonmonotone-basefeed;
#X obj 849 271 t b a;
#X obj 840 301 sssad/sssad nonmonotone-freqfeed;
#X obj 763 321 t b a;
#X obj 754 351 sssad/sssad nonmonotone-base2;
#X obj 666 352 t b a;
#X obj 660 382 sssad/sssad nonmonotone-amp2;
#X obj 646 170 t b a;
#X obj 637 200 sssad/sssad nonmonotone-freq2;
#X obj 560 203 t b a;
#X obj 549 233 sssad/sssad nonmonotone-base1;
#X obj 483 236 t b a;
#X obj 477 267 sssad/sssad nonmonotone-amp1;
#X obj 401 297 t b a;
#X obj 395 328 sssad/sssad nonmonotone-freq1;
#X obj 301 351 t b a;
#X obj 295 382 sssad/sssad nonmonotone-wet;
#X connect 0 0 7 0;
#X connect 1 0 52 0;
#X connect 2 0 6 0;
#X connect 3 0 6 1;
#X connect 6 0 4 0;
#X connect 6 1 5 0;
#X connect 7 0 8 0;
#X connect 7 1 9 0;
#X connect 7 2 10 0;
#X connect 7 3 11 0;
#X connect 7 4 12 0;
#X connect 7 5 13 0;
#X connect 7 6 14 0;
#X connect 7 7 15 0;
#X connect 7 8 16 0;
#X connect 7 9 17 0;
#X connect 7 10 18 0;
#X connect 8 0 19 0;
#X connect 9 0 20 0;
#X connect 10 0 21 0;
#X connect 11 0 22 0;
#X connect 12 0 23 0;
#X connect 13 0 24 0;
#X connect 14 0 25 0;
#X connect 15 0 26 0;
#X connect 16 0 27 0;
#X connect 17 0 28 0;
#X connect 18 0 30 0;
#X connect 19 0 1 0;
#X connect 20 0 50 0;
#X connect 21 0 48 0;
#X connect 22 0 46 0;
#X connect 23 0 44 0;
#X connect 24 0 42 0;
#X connect 25 0 40 0;
#X connect 26 0 38 0;
#X connect 27 0 36 0;
#X connect 28 0 34 0;
#X connect 29 0 31 0;
#X connect 30 0 29 0;
#X connect 31 0 32 0;
#X connect 31 1 32 1;
#X connect 32 0 33 0;
#X connect 33 0 6 2;
#X connect 34 0 35 0;
#X connect 34 1 35 1;
#X connect 35 0 33 0;
#X connect 36 0 37 0;
#X connect 36 1 37 1;
#X connect 37 0 33 0;
#X connect 38 0 39 0;
#X connect 38 1 39 1;
#X connect 39 0 33 0;
#X connect 40 0 41 0;
#X connect 40 1 41 1;
#X connect 41 0 33 0;
#X connect 42 0 43 0;
#X connect 42 1 43 1;
#X connect 43 0 33 0;
#X connect 44 0 45 0;
#X connect 44 1 45 1;
#X connect 45 0 33 0;
#X connect 46 0 47 0;
#X connect 46 1 47 1;
#X connect 47 0 33 0;
#X connect 48 0 49 0;
#X connect 48 1 49 1;
#X connect 49 0 33 0;
#X connect 50 0 51 0;
#X connect 50 1 51 1;
#X connect 51 0 33 0;
#X connect 52 0 53 0;
#X connect 52 1 53 1;
#X connect 53 0 33 0;
