#N canvas 0 25 1272 692 10;
#X obj 480 92 inlet;
#X obj 168 110 inlet~;
#X obj 253 107 inlet~;
#X obj 198 500 outlet~;
#X obj 305 498 outlet~;
#X obj 201 376 mtl/distro8bit~ /id disto8bit;
#X obj 344 188 random 127;
#X msg 347 214 /wet \$1;
#X obj 494 185 random 127;
#X msg 497 211 /invert \$1;
#X obj 667 182 random 127;
#X msg 670 208 /invert \$1;
#X obj 815 176 random 1;
#X msg 818 202 /dc \$1;
#X obj 480 142 t b b b b;
#X obj 490 328 route list;
#X obj 336 243 t b a;
#X obj 320 269 sssad/sssad wet-disto8bit;
#X obj 502 243 t b a;
#X obj 486 269 sssad/sssad invert-disto8bit;
#X obj 681 247 t b a;
#X obj 665 273 sssad/sssad invert2-disto8bit;
#X obj 874 249 t b a;
#X obj 858 275 sssad/sssad dc-disto8bit;
#X connect 0 0 14 0;
#X connect 1 0 5 0;
#X connect 2 0 5 1;
#X connect 5 0 3 0;
#X connect 5 1 4 0;
#X connect 6 0 7 0;
#X connect 7 0 16 0;
#X connect 8 0 9 0;
#X connect 9 0 18 0;
#X connect 10 0 11 0;
#X connect 11 0 20 0;
#X connect 12 0 13 0;
#X connect 13 0 22 0;
#X connect 14 0 6 0;
#X connect 14 1 8 0;
#X connect 14 2 10 0;
#X connect 14 3 12 0;
#X connect 15 0 5 2;
#X connect 16 0 17 0;
#X connect 16 1 17 1;
#X connect 17 0 15 0;
#X connect 18 0 19 0;
#X connect 18 1 19 1;
#X connect 19 0 15 0;
#X connect 20 0 21 0;
#X connect 20 1 21 1;
#X connect 21 0 15 0;
#X connect 22 0 23 0;
#X connect 22 1 23 1;
#X connect 23 0 15 0;
