#N canvas 0 25 1272 692 10;
#X obj 340 113 inlet;
#X obj 168 110 inlet~;
#X obj 253 107 inlet~;
#X obj 198 500 outlet~;
#X obj 305 498 outlet~;
#X obj 199 375 diode~;
#X obj 284 382 diode~;
#X obj 359 203 random 2;
#X obj 359 239 t b a;
#X obj 356 262 sssad/sssad diode;
#X connect 0 0 7 0;
#X connect 1 0 5 0;
#X connect 2 0 6 0;
#X connect 5 0 3 0;
#X connect 6 0 4 0;
#X connect 7 0 8 0;
#X connect 8 0 9 0;
#X connect 8 1 9 1;
#X connect 9 0 6 1;
#X connect 9 0 5 1;
