#N canvas 0 25 1272 692 10;
#X obj 394 72 inlet;
#X obj 40 109 inlet~;
#X obj 110 476 outlet~;
#X obj 257 476 outlet~;
#X obj 394 119 t b b b b;
#X obj 124 110 inlet~;
#X obj 121 413 mtl/robot~ /id robot;
#X obj 263 160 random 100;
#X obj 264 184 / 100;
#X obj 465 174 random 120;
#X obj 464 203 - 60;
#X msg 464 227 /pitch \$1;
#X msg 265 211 /wet \$1;
#X obj 663 178 random 19000;
#X obj 662 209 + 1000;
#X msg 654 236 /samplerate \$1;
#X obj 876 167 random 200;
#X obj 874 204 / 100;
#X msg 875 237 /tracking \$1;
#X obj 502 356 route list;
#X obj 874 266 t b a;
#X obj 652 262 t b a;
#X obj 832 292 sssad/sssad robot-tracking;
#X obj 645 291 sssad/sssad robot-samplerate;
#X obj 464 262 t b a;
#X obj 460 293 sssad/sssad robot-pitch;
#X obj 288 257 t b a;
#X obj 284 288 sssad/sssad robot-wet;
#X connect 0 0 4 0;
#X connect 1 0 6 0;
#X connect 4 0 7 0;
#X connect 4 1 9 0;
#X connect 4 2 13 0;
#X connect 4 3 16 0;
#X connect 5 0 6 1;
#X connect 6 0 2 0;
#X connect 6 1 3 0;
#X connect 7 0 8 0;
#X connect 8 0 12 0;
#X connect 9 0 10 0;
#X connect 10 0 11 0;
#X connect 11 0 24 0;
#X connect 12 0 26 0;
#X connect 13 0 14 0;
#X connect 14 0 15 0;
#X connect 15 0 21 0;
#X connect 16 0 17 0;
#X connect 17 0 18 0;
#X connect 18 0 20 0;
#X connect 19 0 6 2;
#X connect 20 0 22 0;
#X connect 20 1 22 1;
#X connect 21 0 23 0;
#X connect 21 1 23 1;
#X connect 22 0 19 0;
#X connect 23 0 19 0;
#X connect 24 0 25 0;
#X connect 24 1 25 1;
#X connect 25 0 19 0;
#X connect 26 0 27 0;
#X connect 26 1 27 1;
#X connect 27 0 19 0;
