#N canvas 0 25 1272 692 10;
#X obj 394 72 inlet;
#X obj 305 196 random 100;
#X obj 314 237 / 100;
#X msg 305 268 /wet \$1;
#X obj 40 109 inlet~;
#X obj 125 106 inlet~;
#X obj 70 499 outlet~;
#X obj 177 497 outlet~;
#X obj 528 196 random 100;
#X obj 525 227 / 100;
#X obj 56 440 mtl/spectral-xfade~ /id spectral-xfade;
#X msg 513 256 /morff \$1;
#X obj 876 191 random 1;
#X msg 873 221 /mfirst \$1;
#X obj 394 119 t b b b;
#X obj 879 255 t b a;
#X obj 862 286 sssad/sssad spectral-mfirst;
#X obj 608 404 route list;
#X obj 544 289 t b a;
#X obj 527 320 sssad/sssad spectral-morff;
#X obj 315 304 t b a;
#X obj 297 334 sssad/sssad spectral-wet;
#X connect 0 0 14 0;
#X connect 1 0 2 0;
#X connect 2 0 3 0;
#X connect 3 0 20 0;
#X connect 4 0 10 0;
#X connect 5 0 10 1;
#X connect 8 0 9 0;
#X connect 9 0 11 0;
#X connect 10 0 6 0;
#X connect 10 1 7 0;
#X connect 11 0 18 0;
#X connect 12 0 13 0;
#X connect 13 0 15 0;
#X connect 14 0 1 0;
#X connect 14 1 8 0;
#X connect 14 2 12 0;
#X connect 15 0 16 0;
#X connect 15 1 16 1;
#X connect 16 0 17 0;
#X connect 17 0 10 2;
#X connect 18 0 19 0;
#X connect 18 1 19 1;
#X connect 19 0 17 0;
#X connect 20 0 21 0;
#X connect 20 1 21 1;
#X connect 21 0 17 0;
