#N canvas 0 25 1272 695 10;
#X obj 200 375 mtl/distoAp~ /id disAp;
#X obj 419 35 inlet;
#X obj 419 82 t b b b;
#X obj 393 129 random 100;
#X obj 402 157 / 100;
#X msg 393 188 /wet \$1;
#X msg 561 180 /drive \$1;
#X obj 564 123 random 500;
#X obj 727 132 random 127;
#X msg 732 187 /lop \$1;
#X obj 168 110 inlet~;
#X obj 253 107 inlet~;
#X obj 198 500 outlet~;
#X obj 305 498 outlet~;
#X obj 443 316 route list;
#X obj 729 214 t b a;
#X obj 724 243 sssad/sssad ap-lop;
#X obj 558 218 t b a;
#X obj 553 247 sssad/sssad ap-drive;
#X obj 384 227 t b a;
#X obj 379 256 sssad/sssad ap-wet;
#X connect 0 0 12 0;
#X connect 0 1 13 0;
#X connect 1 0 2 0;
#X connect 2 0 3 0;
#X connect 2 1 7 0;
#X connect 2 2 8 0;
#X connect 3 0 4 0;
#X connect 4 0 5 0;
#X connect 5 0 19 0;
#X connect 6 0 17 0;
#X connect 7 0 6 0;
#X connect 8 0 9 0;
#X connect 9 0 15 0;
#X connect 10 0 0 0;
#X connect 11 0 0 1;
#X connect 14 0 0 2;
#X connect 15 0 16 0;
#X connect 15 1 16 1;
#X connect 16 0 14 0;
#X connect 17 0 18 0;
#X connect 17 1 18 1;
#X connect 18 0 14 0;
#X connect 19 0 20 0;
#X connect 19 1 20 1;
#X connect 20 0 14 0;
