#N canvas 0 25 1272 692 10;
#X obj 394 72 inlet;
#X obj 40 109 inlet~;
#X obj 110 476 outlet~;
#X obj 257 476 outlet~;
#X obj 124 110 inlet~;
#X obj 325 178 random 100;
#X obj 326 202 / 100;
#X msg 327 229 /wet \$1;
#X obj 747 170 random 100;
#X obj 749 198 / 100;
#X obj 394 119 t b b b b;
#X obj 124 413 mtl/repeater~ /id repeater;
#X msg 743 224 /feedback \$1;
#X obj 556 175 random 1000;
#X msg 558 200 /float \$1;
#X msg 934 204 /num \$1;
#X obj 931 177 random 64;
#X obj 931 241 t b a;
#X obj 927 272 sssad/sssad repeater-num;
#X obj 724 340 route list;
#X obj 744 252 t b a;
#X obj 740 283 sssad/sssad repeater-feedback;
#X obj 558 227 t b a;
#X obj 554 258 sssad/sssad repeater-float;
#X obj 345 265 t b a;
#X obj 341 296 sssad/sssad repeater-wet;
#X connect 0 0 10 0;
#X connect 1 0 11 0;
#X connect 4 0 11 1;
#X connect 5 0 6 0;
#X connect 6 0 7 0;
#X connect 7 0 24 0;
#X connect 8 0 9 0;
#X connect 9 0 12 0;
#X connect 10 0 5 0;
#X connect 10 1 13 0;
#X connect 10 2 8 0;
#X connect 10 3 16 0;
#X connect 11 0 2 0;
#X connect 11 1 3 0;
#X connect 12 0 20 0;
#X connect 13 0 14 0;
#X connect 14 0 22 0;
#X connect 15 0 17 0;
#X connect 16 0 15 0;
#X connect 17 0 18 0;
#X connect 17 1 18 1;
#X connect 18 0 19 0;
#X connect 19 0 11 2;
#X connect 20 0 21 0;
#X connect 20 1 21 1;
#X connect 21 0 19 0;
#X connect 22 0 23 0;
#X connect 22 1 23 1;
#X connect 23 0 19 0;
#X connect 24 0 25 0;
#X connect 24 1 25 1;
#X connect 25 0 19 0;
